<svg width="224" height="76" viewBox="0 0 224 76" fill="none" xmlns="http://www.w3.org/2000/svg">
<g clip-path="url(#clip0)">
<path d="M19.8414 38.6664H0V58.5093L19.8414 38.6664Z" fill="#5B7E96"/>
<path d="M37.3286 75.9985V56.1517L17.4872 75.9985H37.3286Z" fill="#5B7E96"/>
<path d="M55.9939 75.9985V20.0001H0.0015564V33.9987H31.1081L0.0015564 65.1073V75.9985H10.888L41.9944 44.8898V75.9985H55.9939Z" fill="#EA0029"/>
<path d="M86.9539 20.6634C87.4084 20.0933 87.5997 20.0176 88.3591 20.0176H93.4894V45.2202H86.9919V29.6729H86.9539L81.5945 36.3244H77.8315C77.2615 36.3244 76.9944 36.2107 76.6915 35.83L71.8263 29.6729H71.7884V45.2202H65.3268V20.0176H70.7999C71.5593 20.0176 71.7506 20.0933 72.205 20.6634L79.5416 29.8244H79.6552L86.9539 20.6634ZM105.394 20.0176H112.121C112.577 20.0176 112.729 20.0554 112.918 20.5876L122.953 45.2202H116.492C116.035 45.2202 115.846 45.1425 115.655 44.6501L114.287 41.0383H104.214L102.999 44.6501C102.847 45.1425 102.658 45.2202 102.201 45.2202H95.9668L105.394 20.0176ZM109.004 26.4418C108.739 27.8112 107.977 30.1293 106.761 33.6255L106.078 35.7543H112.235L111.475 33.6255C110.068 29.9001 109.347 27.849 109.042 26.4418H109.004ZM125.431 45.2202V20.0176H134.629C139.797 20.0176 143.827 21.1198 146.486 23.7808C148.501 25.796 149.681 28.7599 149.681 32.6388C149.681 36.5157 148.501 39.4418 146.486 41.457C143.827 44.118 139.797 45.2202 134.629 45.2202H125.431ZM134.438 39.4039C137.366 39.4039 139.419 39.099 140.786 37.8831C141.964 36.8566 142.649 35.2221 142.649 32.6388C142.649 30.0536 141.964 28.3812 140.786 27.3547C139.419 26.1388 137.366 25.8339 134.438 25.8339H132.196V39.4039H134.438ZM172.988 20.0176V25.6067H160.181V29.7486H171.848V35.2221H160.181V39.6312H173.331V45.2202H153.416V20.0176H172.988ZM193.476 45.2202H186.711V20.0196H193.476V45.2202ZM205.06 20.0176C205.666 20.0176 205.895 20.0933 206.236 20.5119L213.496 29.5593C215.244 31.7638 216.954 33.9683 217.638 34.957H217.676V20.0176H223.986V45.2202H219.159C218.551 45.2202 218.324 45.1425 217.981 44.7259L210.646 35.6028C209.05 33.6255 207.186 31.3073 206.465 30.2051H206.427V45.2202H200.117V20.0176H205.06ZM65.3268 50.7993H77.1459C80.8332 50.7993 82.9239 51.3694 84.4068 52.8145C85.5091 53.8789 86.1169 55.5134 86.1169 57.1857C86.1169 59.1989 85.1283 61.1005 83.7989 62.3163C86.1169 63.305 87.7134 65.3202 87.7134 68.2463C87.7134 70.5644 86.954 72.3524 85.6605 73.6061C83.9882 75.2406 81.2896 76 77.5645 76H65.3268V50.7993ZM78.0587 60.8732C78.5152 60.8732 78.8201 60.7955 79.0473 60.4168C79.3144 59.9982 79.4659 59.0853 79.4659 58.4774C79.4659 57.7179 79.3145 57.1857 78.9716 56.8429C78.553 56.4243 77.9073 56.3107 76.843 56.3107H72.0914V60.8732H78.0587ZM72.0914 70.4887H78.0209C79.1609 70.4887 79.8446 70.3372 80.2631 69.9186C80.6059 69.5758 80.8332 68.8921 80.8332 68.019C80.8332 67.2198 80.6438 66.7254 80.301 66.3846C79.8844 65.966 79.2367 65.8145 78.0209 65.8145H72.0914V70.4887ZM99.969 76H93.2043V50.7993H104.226C108.446 50.7993 111.22 51.483 112.968 53.1932C114.337 54.5626 115.135 56.5778 115.135 59.0853C115.135 62.6592 113.273 65.3959 110.955 66.8789L116.617 76H109.891C109.281 76 109.091 75.9243 108.749 75.3542L104.91 68.8163C104.493 68.1327 104.418 68.0569 103.694 68.0569H99.969L99.969 76ZM106.355 62.6971C107.001 62.6971 107.343 62.5834 107.724 62.0134C108.141 61.3656 108.294 60.1876 108.294 59.4281C108.294 58.5152 107.989 57.6023 107.571 57.1857C106.963 56.6157 106.012 56.4622 104.34 56.4622H99.969V62.6971H106.355ZM128.231 76H121.467V50.7993H128.231V76ZM140.903 56.3864H132.465V50.7993H156.105V56.3864H147.668V76.0001H140.903V56.3864ZM164.984 50.7993H171.711C172.167 50.7993 172.319 50.8372 172.51 51.3694L182.543 76H176.082C175.625 76 175.436 75.9243 175.247 75.4299L173.877 71.8201H163.806L162.589 75.4299C162.437 75.9242 162.248 76 161.791 76H155.559L164.984 50.7993ZM168.594 57.2235C168.329 58.5909 167.569 60.9111 166.351 64.4072L165.668 66.536H171.825L171.065 64.4072C169.66 60.6819 168.937 58.6288 168.632 57.2235H168.594ZM193.49 76H186.725V50.7993H193.49V76ZM205.074 50.7993C205.681 50.7993 205.911 50.8751 206.252 51.2937L213.512 60.339C215.26 62.5456 216.97 64.7501 217.654 65.7368H217.692V50.7993H224V76H219.175C218.567 76 218.338 75.9243 217.995 75.5057L210.66 66.3846C209.064 64.4073 207.202 62.0891 206.479 60.9868H206.441V76H200.133V50.7993H205.074Z" fill="#5B7E96"/>
</g>
<path d="M71.6276 14H73.4376L70.8976 6.98H68.9176L66.3776 14H68.1676L68.5876 12.76H71.2076L71.6276 14ZM70.7676 11.44H69.0376L69.8976 8.87L70.7676 11.44ZM82.8098 6.9C80.7098 6.9 79.2398 8.38 79.2398 10.48C79.2398 12.58 80.7198 14.05 82.8198 14.05C84.6698 14.05 85.8398 12.84 86.1998 11.63V10.04H82.4798V11.3H84.6498C84.3898 12.09 83.7998 12.54 82.9498 12.54C81.7198 12.54 80.9798 11.78 80.9798 10.48C80.9798 9.26 81.7098 8.48 82.8098 8.48C83.4498 8.48 83.9298 8.73 84.1898 9.2H86.0798C85.7098 7.76 84.4898 6.9 82.8098 6.9ZM93.0469 6.98H88.7469V14H93.0469V12.63H90.4569V11.09H92.7469V9.77H90.4569V8.35H93.0469V6.98ZM100.327 6.98V11.33L97.4671 6.98H95.7571V14H97.4671V9.67L100.327 14H102.037V6.98H100.327ZM104.847 11.17C104.847 13.11 106.117 14.07 107.747 14.07C109.367 14.07 110.727 13.11 110.727 11.17V6.98H109.017V11.18C109.017 12.01 108.587 12.49 107.777 12.49C106.967 12.49 106.557 12.01 106.557 11.18V6.98H104.847V11.17ZM113.527 14H115.237V6.98H113.527V14ZM122.647 6.98V11.33L119.787 6.98H118.077V14H119.787V9.67L122.647 14H124.357V6.98H122.647ZM131.496 6.98H127.196V14H131.496V12.63H128.906V11.09H131.196V9.77H128.906V8.35H131.496V6.98ZM139.335 14H141.405L142.565 9.38L143.685 14H145.755L147.585 6.98H145.745L144.725 12.09L143.525 6.98H141.645L140.395 12.09L139.385 6.98H137.555L139.335 14ZM154.833 14H156.643L154.103 6.98H152.123L149.583 14H151.373L151.793 12.76H154.413L154.833 14ZM153.973 11.44H152.243L153.103 8.87L153.973 11.44ZM158.636 8.35H160.496V14H162.206V8.35H164.066V6.98H158.636V8.35ZM170.824 6.98H166.524V14H170.824V12.63H168.234V11.09H170.524V9.77H168.234V8.35H170.824V6.98ZM177.244 9.26C177.244 9.81 176.944 10.14 176.304 10.14H175.244V8.4H176.304C176.944 8.4 177.244 8.74 177.244 9.26ZM173.534 6.98V14H175.244V11.35H175.654L177.114 14H179.044L177.424 11.22C178.504 10.9 178.984 10.07 178.984 9.19C178.984 7.97 178.124 6.98 176.404 6.98H173.534ZM185.377 14H187.087V11.16H189.227V9.83H187.087V8.35H189.947V6.98H185.377V14ZM192.446 14H194.156V6.98H192.446V14ZM196.995 6.98V14H200.945V12.68H198.705V6.98H196.995ZM202.981 8.35H204.841V14H206.551V8.35H208.411V6.98H202.981V8.35ZM215.169 6.98H210.869V14H215.169V12.63H212.579V11.09H214.869V9.77H212.579V8.35H215.169V6.98ZM221.589 9.26C221.589 9.81 221.289 10.14 220.649 10.14H219.589V8.4H220.649C221.289 8.4 221.589 8.74 221.589 9.26ZM217.879 6.98V14H219.589V11.35H219.999L221.459 14H223.389L221.769 11.22C222.849 10.9 223.329 10.07 223.329 9.19C223.329 7.97 222.469 6.98 220.749 6.98H217.879Z" fill="black"/>
<defs>
<clipPath id="clip0">
<rect width="224" height="56" fill="white" transform="translate(0 20)"/>
</clipPath>
</defs>
</svg>
