<svg width="89" height="25" viewBox="0 0 89 25" fill="none" xmlns="http://www.w3.org/2000/svg">
<g clip-path="url(#clip0)">
<path d="M12.2982 0.848145C14.1591 0.848145 16.02 1.2455 17.7191 2.0402L18.5282 2.43755L17.3955 3.39119L15.6964 1.64285L12.7836 4.18589L11.0845 2.43755L5.66364 7.12629L9.14273 10.7819L7.76727 11.974L11.1655 15.6296L9.79 16.7422L14.6445 21.9872L17.5573 19.4442L20.0655 22.2256C19.58 22.623 19.0136 22.9409 18.4473 23.2587C16.5864 24.2919 14.4827 24.8481 12.3791 24.8481C5.58273 24.8481 0 19.4442 0 12.8481C0 6.25212 5.50182 0.848145 12.2982 0.848145ZM10.0327 12.0534L12.9455 9.5104L15.6155 12.3713L12.7027 14.9144L10.0327 12.0534ZM12.1364 17.0601L15.0491 14.4375L17.7191 17.2985L14.8064 19.8415L12.1364 17.0601ZM8.01 7.20576L10.9227 4.66271L13.5927 7.52364L10.68 10.0667L8.01 7.20576ZM13.35 5.85477L15.5345 3.94748L17.5573 6.09318L15.3727 8.00046L13.35 5.85477ZM17.3145 14.676L19.4991 12.7687L21.5218 14.9144L19.3373 16.8217L17.3145 14.676ZM19.2564 18.9674L21.4409 17.0601L23.3827 19.2058L21.1982 21.113L19.2564 18.9674ZM20.1464 9.11304L21.6027 7.84152L22.8973 9.27199L21.4409 10.5435L20.1464 9.11304ZM18.2045 4.90112L19.6609 3.55013L21.0364 4.98059L19.58 6.25212L18.2045 4.90112ZM22.0073 13.325L23.4636 12.0534L24.8391 13.4839L23.3827 14.7554L22.0073 13.325ZM15.3727 10.1462L17.5573 8.23887L19.4991 10.3846L17.3145 12.2919L15.3727 10.1462ZM30.6645 6.96735H31.8782L33.7391 13.8813H33.82L35.1955 6.96735H36.7327L34.5482 16.2654H33.0918L31.3118 9.74881H31.2309L29.4509 16.2654H27.9945L25.8909 6.96735H27.3473L28.8036 13.8813H28.8845L30.6645 6.96735ZM38.5936 12.2919H41.6682C41.5873 10.9409 40.94 10.3846 40.2118 10.3846C39.4027 10.3846 38.7555 11.0203 38.5936 12.2919ZM42.72 14.7554V15.7885C42.1536 16.1064 41.3445 16.4243 40.3736 16.4243C38.1082 16.4243 37.2182 15.0733 37.2182 13.0071C37.2182 11.0203 38.27 9.58987 40.2118 9.58987C41.9109 9.58987 42.8818 10.623 42.8818 12.7687V13.2455H38.5127C38.5127 14.8349 39.16 15.5501 40.5355 15.5501C41.3445 15.4707 41.9918 15.2323 42.72 14.7554ZM46.0373 15.3117C46.4418 15.4707 46.9273 15.5501 47.2509 15.5501C48.2218 15.5501 48.95 14.9144 48.95 12.8481C48.95 11.1793 48.3027 10.623 47.4127 10.623C46.8464 10.623 46.5227 10.7819 45.9564 11.0203V15.3117H46.0373ZM46.0373 10.0667C46.4418 9.82828 47.0891 9.58987 47.8173 9.58987C49.4355 9.58987 50.3255 10.7024 50.3255 12.8481C50.3255 15.3117 49.1118 16.5038 47.17 16.5038C46.28 16.5038 45.39 16.2654 44.5809 15.868V6.64947L45.9564 6.33159L46.0373 10.0667ZM56.6364 16.2654H55.8273L53.0764 9.66934H52.9955V16.2654H51.7818V6.96735H53.4L56.3936 14.2786H56.4745L59.3064 6.96735H60.9245V16.2654H59.4682V9.5104H59.3873L56.6364 16.2654ZM66.75 12.9276C66.75 11.1793 66.0218 10.3846 65.1318 10.3846C64.2418 10.3846 63.5136 11.0998 63.5136 12.9276C63.5136 14.7554 64.2418 15.4707 65.1318 15.4707C66.0218 15.4707 66.75 14.7554 66.75 12.9276ZM62.1382 12.9276C62.1382 10.623 63.4327 9.5104 65.2127 9.5104C66.9927 9.5104 68.2873 10.623 68.2873 12.9276C68.2873 15.1528 67.0736 16.3448 65.2127 16.3448C63.3518 16.3448 62.1382 15.1528 62.1382 12.9276ZM69.2582 10.464C69.8245 10.1462 71.1191 9.5104 72.6564 9.5104C74.2746 9.5104 74.8409 10.1462 74.8409 11.4972V16.2654H73.4655V11.815C73.4655 10.7819 72.98 10.623 72.2518 10.623C71.6855 10.623 71.0382 10.8614 70.6336 11.0998V16.2654H69.2582V10.464ZM77.7536 12.2919H80.8282C80.7473 10.9409 80.0191 10.3846 79.2909 10.3846C78.4818 10.3846 77.9155 10.9409 77.7536 12.2919ZM81.88 14.7554V15.7885C81.3136 16.1064 80.5045 16.4243 79.5336 16.4243C77.2682 16.4243 76.3782 15.0733 76.3782 13.0071C76.3782 11.0203 77.43 9.58987 79.3718 9.58987C81.0709 9.58987 82.0418 10.623 82.0418 12.7687V13.2455H77.6727C77.6727 14.8349 78.32 15.5501 79.6955 15.5501C80.4236 15.4707 81.1518 15.2323 81.88 14.7554ZM87.6245 9.5104H89L86.5727 16.1064C85.9255 17.9342 85.1164 18.8879 83.5791 18.8879V17.7753C84.4691 17.7753 85.0355 17.0601 85.3591 16.1064L82.77 9.5104H84.2264L85.9255 14.3581H86.0064L87.6245 9.5104Z" fill="#106DB3"/>
</g>
<defs>
<clipPath id="clip0">
<rect width="89" height="24" fill="white" transform="translate(0 0.848145)"/>
</clipPath>
</defs>
</svg>
