<svg width="68" height="23" viewBox="0 0 68 23" fill="none" xmlns="http://www.w3.org/2000/svg">
<path d="M0 1.16157C0.900382 0.711378 1.93582 0.891455 2.92624 0.846436C5.1772 0.891455 7.38313 0.801416 9.63409 0.891455C10.6245 0.891455 11.5249 1.7018 11.6599 2.69222C12.3803 6.11367 13.0105 9.49011 13.6858 12.9116C12.5603 8.94988 9.54405 5.7085 6.03256 3.63762C4.14176 2.51214 2.07088 1.83686 0 1.16157Z" fill="#F4A929"/>
<path d="M19.4489 0.891357C21.3847 0.936377 23.3205 0.891357 25.2564 0.891357C22.3301 7.91434 19.584 15.0274 16.5677 22.0503C14.6769 22.0053 12.7861 22.0053 10.8953 22.0053C9.22956 15.8827 7.65389 9.76012 6.0332 3.63752C9.54469 5.7084 12.561 8.9948 13.7315 12.9565C13.9115 13.7218 14.0466 14.5321 14.1817 15.2975C15.8924 10.4804 17.6932 5.7084 19.4489 0.891357Z" fill="#1B4DA2"/>
<path d="M27.4603 0.891357C29.3061 0.891357 31.1069 0.891357 32.9527 0.891357C31.8272 7.95936 30.6567 14.9823 29.5762 22.0503C27.7755 22.0503 25.9297 22.0503 24.1289 22.0503C25.1193 14.9823 26.3348 7.91434 27.4603 0.891357Z" fill="#1B4DA2"/>
<path d="M38.1304 2.19698C41.4168 0.036065 45.6936 0.126103 49.2952 1.2966C49.1151 2.87227 48.845 4.40292 48.5749 5.93357C46.639 4.98817 44.4331 4.58299 42.3172 5.12322C41.3268 5.34832 40.3814 6.56384 41.1917 7.50924C42.8574 9.21996 45.5136 9.62514 47.1342 11.5159C48.98 13.3167 48.89 16.333 47.6295 18.4489C46.3239 20.6548 43.7578 21.8253 41.2818 22.1404C38.4906 22.4106 35.5643 22.2755 32.9082 21.15C33.1783 19.5744 33.4034 17.9987 33.7185 16.423C35.9695 17.5935 38.6256 18.1788 41.1467 17.6385C42.0021 17.3684 42.9024 16.6481 42.8124 15.6127C42.5423 14.3972 41.2818 13.902 40.2913 13.3617C38.4005 12.4163 36.3747 11.2908 35.5193 9.21996C34.4389 6.69889 35.8795 3.68261 38.1304 2.19698Z" fill="#1B4DA2"/>
<path d="M56.0485 3.05241C56.4086 2.06199 57.1289 1.02655 58.2544 0.981531C59.9201 0.846474 61.6308 0.981531 63.2965 0.936512C64.7822 7.95949 66.2678 15.0275 67.7084 22.0505C66.0427 22.0505 64.332 22.0505 62.6663 22.0505C62.4412 20.97 62.2161 19.9346 61.991 18.8541C59.65 18.8541 57.309 18.8541 54.968 18.8541C54.6078 19.9346 54.2027 20.97 53.7975 22.0505C51.9067 22.0505 49.9709 22.0505 48.0801 22.0505C50.7362 15.7028 53.3923 9.40011 56.0485 3.05241Z" fill="#1B4DA2"/>
<path d="M56.5879 14.4872C57.6233 11.8761 58.4337 9.17498 59.5592 6.60889C59.9193 9.26501 60.5496 11.8761 61.0898 14.4872C59.6042 14.4872 58.0735 14.4872 56.5879 14.4872Z" fill="white"/>
</svg>
