<svg width="55" height="43" viewBox="0 0 55 43" fill="none" xmlns="http://www.w3.org/2000/svg">
<path d="M53.4658 41.6625V41.7687H53.572C53.572 41.7687 53.572 41.7687 53.6782 41.7687C53.572 41.6625 53.572 41.6625 53.4658 41.6625ZM53.572 41.5562H53.6782V41.6625V41.7687H53.572L53.6782 41.8749H53.572H53.4658V41.9811H53.3596V41.5562H53.572ZM53.572 42.1936H53.6782C53.6782 42.1936 53.7845 42.1936 53.7845 42.0874C53.7845 41.9811 53.8907 41.9811 53.8907 41.9811V41.8749V41.7687C53.8907 41.7687 53.8907 41.6625 53.7845 41.6625C53.6782 41.6625 53.6782 41.5562 53.6782 41.45H53.572H53.4658C53.4658 41.45 53.3596 41.45 53.3596 41.5562C53.3596 41.6625 53.2533 41.6625 53.2533 41.6625V41.7687V41.8749C53.2533 41.8749 53.2533 41.9811 53.3596 41.9811C53.4658 41.9811 53.4658 42.0874 53.4658 42.0874C53.4658 42.1936 53.4658 42.1936 53.572 42.1936ZM53.572 41.3438C53.6782 41.3438 53.6782 41.3438 53.7845 41.3438C53.8907 41.3438 53.8907 41.45 53.8907 41.45L53.9969 41.5562C53.9969 41.5562 53.9969 41.6625 53.9969 41.7687C53.9969 41.8749 53.9969 41.8749 53.9969 41.9811C53.9969 42.0874 53.8907 42.0874 53.8907 42.0874L53.7845 42.1936C53.6782 42.1936 53.6782 42.1936 53.572 42.1936C53.4658 42.1936 53.4658 42.1936 53.3596 42.1936C53.2533 42.1936 53.2533 42.0874 53.2533 42.0874L53.1471 41.9811C53.1471 41.9811 53.1471 41.8749 53.1471 41.7687C53.1471 41.6625 53.1471 41.6625 53.1471 41.5562C53.1471 41.45 53.2533 41.45 53.2533 41.45L53.3596 41.3438C53.3596 41.3438 53.4658 41.3438 53.572 41.3438ZM12.1431 39.7504C12.1431 39.0068 12.6742 38.3694 13.5241 38.3694C14.3739 38.3694 14.905 39.0068 14.905 39.7504C14.905 40.494 14.3739 41.1313 13.5241 41.1313C12.6742 41.2376 12.1431 40.6002 12.1431 39.7504ZM15.7548 39.7504V37.5196H14.7988V38.1569C14.4801 37.732 13.949 37.4133 13.3116 37.4133C12.0369 37.4133 11.0808 38.3694 11.0808 39.7504C11.0808 41.1313 12.0369 42.0874 13.3116 42.0874C13.949 42.0874 14.3739 41.8749 14.6926 41.45V41.9811H15.6486V39.7504H15.7548ZM48.3668 39.7504C48.3668 39.0068 48.898 38.3694 49.7478 38.3694C50.5976 38.3694 51.1288 39.0068 51.1288 39.7504C51.1288 40.494 50.5976 41.1313 49.7478 41.1313C48.7917 41.2376 48.3668 40.6002 48.3668 39.7504ZM51.8724 39.7504V35.7137H50.9163V38.1569C50.5976 37.732 50.1727 37.4133 49.5353 37.4133C48.2606 37.4133 47.3046 38.4756 47.3046 39.7504C47.3046 41.1313 48.2606 42.0874 49.5353 42.0874C50.1727 42.0874 50.5976 41.8749 50.9163 41.45V41.9811H51.8724V39.7504ZM27.6524 38.3694C28.2897 38.3694 28.7147 38.7943 28.8209 39.4317H26.4839C26.5901 38.7943 27.015 38.3694 27.6524 38.3694ZM27.7586 37.4133C26.4839 37.4133 25.5278 38.3694 25.5278 39.7504C25.5278 41.1313 26.4839 42.0874 27.7586 42.0874C28.396 42.0874 29.0333 41.8749 29.5645 41.45L29.1396 40.7064C28.7147 41.0251 28.2897 41.1313 27.8648 41.1313C27.2275 41.1313 26.6963 40.8126 26.5901 40.069H29.8832C29.8832 39.9628 29.8832 39.8566 29.8832 39.7504C29.7769 38.3694 28.9271 37.4133 27.7586 37.4133ZM39.3375 39.7504C39.3375 39.0068 39.8686 38.3694 40.7184 38.3694C41.5682 38.3694 42.0994 39.0068 42.0994 39.7504C42.0994 40.494 41.5682 41.1313 40.7184 41.1313C39.8686 41.2376 39.3375 40.6002 39.3375 39.7504ZM42.9492 39.7504V37.5196H41.9932V38.1569C41.6745 37.732 41.2496 37.4133 40.6122 37.4133C39.3375 37.4133 38.3814 38.3694 38.3814 39.7504C38.3814 41.1313 39.3375 42.0874 40.6122 42.0874C41.2496 42.0874 41.6745 41.8749 41.9932 41.45V41.9811H42.9492V39.7504ZM33.9198 39.7504C33.9198 41.1313 34.8759 42.0874 36.2568 42.0874C36.8942 42.0874 37.3191 41.9811 37.8503 41.5562L37.4254 40.8126C37.1067 41.0251 36.6818 41.2376 36.2568 41.2376C35.5133 41.2376 34.8759 40.7064 34.8759 39.8566C34.8759 39.0068 35.407 38.4756 36.2568 38.4756C36.6818 38.4756 37.1067 38.5819 37.4254 38.9005L37.8503 38.1569C37.4254 37.6258 37.0004 37.4133 36.2568 37.4133C34.8759 37.4133 33.9198 38.4756 33.9198 39.7504ZM46.3485 37.4133C45.8174 37.4133 45.3925 37.6258 45.18 38.0507V37.5196H44.2239V41.9811H45.18V39.5379C45.18 38.7943 45.4987 38.3694 46.136 38.3694C46.3485 38.3694 46.561 38.3694 46.7734 38.4756L47.0921 37.6258C46.7734 37.5196 46.561 37.4133 46.3485 37.4133ZM20.5351 37.9445C20.1102 37.6258 19.4728 37.5196 18.7292 37.5196C17.5607 37.5196 16.9234 38.0507 16.9234 38.9005C16.9234 39.6441 17.4545 40.069 18.4105 40.1753L18.8355 40.2815C19.3666 40.3877 19.5791 40.494 19.5791 40.7064C19.5791 41.0251 19.2604 41.2376 18.5168 41.2376C17.8794 41.2376 17.3483 41.0251 17.0296 40.8126L16.6047 41.5562C17.1358 41.9811 17.7732 42.0874 18.5168 42.0874C19.7915 42.0874 20.5351 41.45 20.5351 40.6002C20.5351 39.8566 20.004 39.4317 18.9417 39.3254L18.5168 39.2192C18.0919 39.113 17.7732 39.113 17.7732 38.7943C17.7732 38.4756 18.0919 38.2632 18.623 38.2632C19.1541 38.2632 19.6853 38.4756 20.004 38.6881L20.5351 37.9445ZM32.9638 37.4133C32.4326 37.4133 32.0077 37.6258 31.7953 38.0507V37.5196H30.8392V41.9811H31.7953V39.5379C31.7953 38.7943 32.114 38.3694 32.7513 38.3694C32.9638 38.3694 33.1762 38.3694 33.3887 38.4756L33.7074 37.5196C33.3887 37.5196 33.1762 37.4133 32.9638 37.4133ZM24.678 37.5196H23.0846V36.1386H22.1285V37.5196H21.2787V38.4756H22.1285V40.494C22.1285 41.5562 22.5534 42.0874 23.7219 42.0874C24.1469 42.0874 24.5718 41.9811 24.8905 41.7687L24.5718 40.9189C24.2531 41.1313 23.9344 41.1313 23.7219 41.1313C23.1908 41.1313 23.0846 40.8126 23.0846 40.3877V38.4756H24.678V37.5196ZM10.3372 41.9811V39.2192C10.3372 38.1569 9.69985 37.4133 8.63757 37.4133C8.10643 37.4133 7.46906 37.6258 7.04415 38.1569C6.72547 37.732 6.19433 37.4133 5.55696 37.4133C5.13205 37.4133 4.60091 37.5196 4.28223 38.0507V37.5196H3.32617V41.9811H4.28223V39.5379C4.28223 38.7943 4.70714 38.3694 5.34451 38.3694C5.98187 38.3694 6.30055 38.7943 6.30055 39.5379V41.9811H7.25661V39.5379C7.25661 38.7943 7.68152 38.3694 8.31889 38.3694C8.95626 38.3694 9.27494 38.7943 9.27494 39.5379V41.9811H10.3372Z" fill="#231F20"/>
<path d="M54.0607 27.241V26.6036H53.8482L53.6357 27.0285L53.4233 26.6036H53.2108V27.241H53.3171V26.7098L53.6357 27.241H53.742L53.9544 26.8161V27.241H54.0607ZM52.9984 27.241V26.7098H53.2108V26.6036H52.6797V26.7098H52.8921V27.241H52.9984Z" fill="#F79410"/>
<path d="M34.8552 30.071H20.2383V3.81152H34.8552V30.071Z" fill="#FF5F00"/>
<path d="M21.1727 16.8901C21.1727 11.5787 23.6159 6.79845 27.5464 3.71783C24.6782 1.48705 21.0665 0.106083 17.2422 0.106083C8.00041 0.106083 0.564453 7.54204 0.564453 16.7839C0.564453 26.0257 8.00041 33.4617 17.2422 33.4617C21.1727 33.4617 24.6782 32.0807 27.5464 29.8499C23.6159 26.9818 21.1727 22.2015 21.1727 16.8901Z" fill="#EB001B"/>
<path d="M54.5698 16.8903C54.5698 26.1322 47.1338 33.5681 37.892 33.5681C33.9616 33.5681 30.456 32.1872 27.5879 29.9564C31.5183 26.8758 33.9616 22.2017 33.9616 16.7841C33.9616 11.3665 31.5183 6.69243 27.5879 3.61182C30.456 1.38103 34.0678 7.24792e-05 37.892 7.24792e-05C47.0276 0.212528 54.5698 7.64849 54.5698 16.8903Z" fill="#F79E1B"/>
</svg>
