<svg width="126" height="70" viewBox="0 0 126 70" fill="none" xmlns="http://www.w3.org/2000/svg">
<path d="M95.8 67.5C84.8 67.5 81.7 58.5 81.7 34.6C81.7 4.9 88.6 1.7 95.8 1.7C103 1.7 109.9 4.9 109.9 34.6C109.9 58.4 106.8 67.5 95.8 67.5ZM66 34.6C65.6 52.2 79.2 69.2 95.9 69.2C112.5 69.2 126.2 52.2 125.8 34.6C125.8 16.2 113.7 0 95.9 0C78.1 0 66 16.2 66 34.6ZM56.2 47H61.6V45.3H35.1V47H42.1V57.4C42.1 64.4 37.3 67.5 31.1 67.5C22.2 67.5 15.8 63.8 15.8 34.6C15.8 15.6 19.4 1.7 30.9 1.7C43 1.7 50 12.5 51.3 23.6H53V2H51.3C51.3 3.8 50.5 5 48.5 5C46 5 38.9 0 30.3 0C13.7 0 0 14.7 0 35.7C0 55.2 14.2 69.1 31.4 69.1C42.7 69.1 50.8 65.6 56.2 61.1V47Z" fill="white"/>
</svg>
