<svg width="131" height="70" viewBox="0 0 131 70" fill="none" xmlns="http://www.w3.org/2000/svg">
<g clip-path="url(#clip0)">
<path d="M65.3001 67.7H83.1001V66H82.3001C77.0001 66 75.0001 65.1 75.0001 59.7V11.7H75.2001L119 68.8H122.9V8.3C122.9 6 124.7 3.2 128.9 3.2H130.2V1.5H112.4V3.2H114.2C118.3 3.2 120.6 5 120.6 8.6V47.1H120.4L84.9001 1.5H65.6001V3.2H68.5001L72.6001 8.7V59.2C72.6001 64.9 69.9001 66 67.0001 66H66.0001H65.3001V67.7ZM29.9001 67.5C18.9001 67.5 15.8001 58.5 15.8001 34.6C15.8001 4.9 22.7001 1.7 29.9001 1.7C37.1001 1.7 44.0001 4.9 44.0001 34.6C44.0001 58.4 40.9001 67.5 29.9001 67.5ZM5.85541e-05 34.6C-0.399941 52.2 13.2001 69.2 29.9001 69.2C46.6001 69.2 60.2001 52.2 59.8001 34.6C59.8001 16.2 47.6001 0 29.9001 0C12.2001 0 5.85541e-05 16.2 5.85541e-05 34.6Z" fill="white"/>
</g>
<defs>
<clipPath id="clip0">
<rect width="130.1" height="69.2" fill="white"/>
</clipPath>
</defs>
</svg>
