<svg width="19" height="24" viewBox="0 0 19 24" xmlns="http://www.w3.org/2000/svg">
<path d="M19 20.4352C19 20.919 18.6042 21.3148 18.1204 21.3148H17.2408V22.1944C17.2408 22.6782 16.8449 23.0741 16.3611 23.0741C15.8773 23.0741 15.4815 22.6782 15.4815 22.1944V21.3148H14.6019C14.1181 21.3148 13.7222 20.919 13.7222 20.4352C13.7222 19.9514 14.1181 19.5555 14.6019 19.5555H15.4815V18.6759C15.4815 18.1921 15.8773 17.7963 16.3611 17.7963C16.8449 17.7963 17.2408 18.1921 17.2408 18.6759V19.5555H18.1204C18.6042 19.5555 19 19.9514 19 20.4352ZM19 6.71295V15.1574C19 15.6412 18.6042 16.037 18.1204 16.037C17.6366 16.037 17.2408 15.6412 17.2408 15.1574V7.59258H15.4815V10.2315C15.4815 10.7153 15.0857 11.1111 14.6019 11.1111C14.1181 11.1111 13.7222 10.7153 13.7222 10.2315V7.59258H5.27778V10.2315C5.27778 10.7153 4.88195 11.1111 4.39815 11.1111C3.91436 11.1111 3.51852 10.7153 3.51852 10.2315V7.59258H1.75926V21.3148H11.0833C11.5671 21.3148 11.963 21.7106 11.963 22.1944C11.963 22.6782 11.5671 23.0741 11.0833 23.0741H0.87963C0.395834 23.0741 0 22.6782 0 22.1944V6.71295C0 6.22915 0.395834 5.83332 0.87963 5.83332H3.5581C3.90996 2.86456 6.43889 0.555534 9.50001 0.555534C12.5611 0.555534 15.0901 2.86456 15.4419 5.83332H18.1204C18.6042 5.83332 19 6.22915 19 6.71295ZM13.6651 5.83332C13.3264 3.84095 11.5891 2.3148 9.50001 2.3148C7.41089 2.3148 5.67362 3.84095 5.33496 5.83332H13.6651Z"/>
</svg>
