<svg width="16" height="13" viewBox="0 0 16 13" xmlns="http://www.w3.org/2000/svg">
<path d="M6.90308 5.66885L9.5437 7.09072L6.90308 8.5376V5.66885Z" fill="white"/>
<path d="M15.8813 10.1406V10.1469C15.8688 10.275 15.7312 11.4219 15.175 12.0031C14.5312 12.6906 13.8031 12.7719 13.4531 12.8125C13.425 12.8156 13.3969 12.8188 13.375 12.8219L13.3438 12.825C11.2281 12.9781 8.03438 13 8.00313 13H7.99687C7.96562 13 4.77188 12.9781 2.6375 12.825L2.60938 12.8219C2.5875 12.8188 2.5625 12.8156 2.53437 12.8125C2.1875 12.7719 1.46563 12.6906 0.81875 11.9781C0.2875 11.4031 0.134375 10.2812 0.11875 10.1562L0.115625 10.1406C0.1125 10.0875 0 8.80937 0 7.52812V6.33125C0 5.05 0.1125 3.775 0.11875 3.72188V3.7125C0.13125 3.58437 0.265625 2.4625 0.821875 1.87813C1.42812 1.21562 2.19375 1.12813 2.60313 1.08125C2.66875 1.075 2.725 1.06875 2.7625 1.05937L2.8 1.05313C4.02187 0.9375 7.85 0.878125 8.0125 0.878125H8.01875H8.025C8.05625 0.878125 11.25 0.900001 13.3656 1.05313L13.3938 1.05625C13.4219 1.05937 13.45 1.0625 13.4844 1.06563C13.8281 1.10313 14.5469 1.17813 15.1844 1.87813C15.7156 2.45312 15.8687 3.575 15.8844 3.70312L15.8875 3.71875C15.8938 3.77188 16.0063 5.04688 16.0063 6.32812V7.525C16 8.80937 15.8875 10.0875 15.8813 10.1406ZM10.4594 6.51562L6.925 4.61563C6.82812 4.5625 6.72188 4.5375 6.61875 4.5375C6.50313 4.5375 6.39062 4.56875 6.28438 4.63125C6.0875 4.75 5.96875 4.95938 5.96875 5.1875V9.02187C5.96875 9.25312 6.0875 9.4625 6.2875 9.58125C6.4875 9.7 6.72813 9.70312 6.93125 9.59375L10.4625 7.65625C10.6719 7.54063 10.8 7.32188 10.8 7.08437C10.8 6.84687 10.6688 6.62813 10.4594 6.51562Z"/>
</svg>
