<svg width="15" height="15" viewBox="0 0 15 15" xmlns="http://www.w3.org/2000/svg">
<path d="M10.9395 0H4.06055C1.82227 0 0 1.82227 0 4.06055V10.9395C0 13.1777 1.82227 15 4.06055 15H10.9395C13.1777 15 15 13.1777 15 10.9395V4.06055C15 1.82227 13.1777 0 10.9395 0ZM7.5 11.6016C5.23828 11.6016 3.39844 9.76172 3.39844 7.5C3.39844 5.23828 5.23828 3.39844 7.5 3.39844C9.76172 3.39844 11.6016 5.23828 11.6016 7.5C11.6016 9.76172 9.76172 11.6016 7.5 11.6016ZM11.6982 4.36523C11.0303 4.36523 10.4854 3.82031 10.4854 3.15234C10.4854 2.48438 11.0303 1.93945 11.6982 1.93945C12.3662 1.93945 12.9111 2.48438 12.9111 3.15234C12.9111 3.82031 12.3691 4.36523 11.6982 4.36523Z"/>
<path d="M7.5 4.27734C5.72461 4.27734 4.27734 5.72168 4.27734 7.5C4.27734 9.27539 5.72168 10.7227 7.5 10.7227C9.27539 10.7227 10.7227 9.27832 10.7227 7.5C10.7227 5.72461 9.27539 4.27734 7.5 4.27734Z"/>
<path d="M11.6982 2.82129C11.5137 2.82129 11.3643 2.9707 11.3643 3.15527C11.3643 3.33984 11.5137 3.48926 11.6982 3.48926C11.8828 3.48926 12.0322 3.33984 12.0322 3.15527C12.0322 2.9707 11.8828 2.82129 11.6982 2.82129Z"/>
</svg>
