<svg width="9" height="16" viewBox="0 0 9 16" xmlns="http://www.w3.org/2000/svg">
<path d="M6.40778 3.92395C6.42946 3.89917 6.53166 3.81865 6.92808 3.81865H8.23193C8.65623 3.81865 9 3.47488 9 3.05059V0.771163C9 0.346869 8.65623 0.00309704 8.23193 0.00309704L6.29628 0C5.10083 0 4.085 0.393324 3.35719 1.13971C2.63248 1.883 2.25155 2.92051 2.25155 4.13765V5.36717H0.768066C0.343771 5.36717 0 5.71094 0 6.13524V8.58809C0 9.01239 0.343771 9.35616 0.768066 9.35616H2.24845V15.0826C2.24845 15.5069 2.59222 15.8507 3.01652 15.8507H5.55609C5.98039 15.8507 6.32416 15.5069 6.32416 15.0826V9.35926H8.13593C8.56022 9.35926 8.90399 9.01548 8.90399 8.59119V6.13833C8.90399 5.8596 8.75224 5.60255 8.50757 5.46628C8.39298 5.40434 8.2629 5.37027 8.12663 5.37027H6.32106V4.3978C6.32725 4.0788 6.37061 3.96421 6.40778 3.92395Z"/>
</svg>
