<svg width="20" height="12" viewBox="0 0 20 12" xmlns="http://www.w3.org/2000/svg">
<path d="M19.7384 5.05775C19.5556 4.85463 15.3713 0 9.98855 0C4.62611 0 0.421479 4.85463 0.258981 5.05775C-0.086327 5.46399 -0.086327 6.05305 0.258981 6.45929C0.441791 6.66242 4.62611 11.517 10.0089 11.517C15.3713 11.517 19.5759 6.66242 19.7587 6.45929C20.0837 6.05305 20.0837 5.46399 19.7384 5.05775ZM11.6338 2.92496C11.9995 2.72184 12.5073 2.94528 12.751 3.43277C13.0151 3.89995 12.9338 4.44838 12.5682 4.6515C12.2026 4.85463 11.6948 4.63119 11.451 4.1437C11.187 3.6562 11.2682 3.10777 11.6338 2.92496ZM9.98855 9.77019C6.23078 9.77019 3.08238 6.88585 1.98552 5.76868C2.71676 4.99681 4.40268 3.45308 6.57609 2.51872C6.14953 3.16871 5.90579 3.92026 5.90579 4.75307C5.90579 7.00772 7.73389 8.83583 9.98855 8.83583C12.2432 8.83583 14.0713 7.00772 14.0713 4.75307C14.0713 3.92026 13.8276 3.1484 13.401 2.51872C15.5744 3.45308 17.2603 4.99681 17.9916 5.76868C16.8947 6.90616 13.7463 9.77019 9.98855 9.77019Z"/>
</svg>
