<svg width="66" height="68" viewBox="0 0 66 68" fill="none" xmlns="http://www.w3.org/2000/svg">
<path d="M45.5067 35.2689C46.1037 35.2689 46.5864 34.7762 46.5864 34.1667C46.5864 33.5573 46.1037 33.0645 45.5067 33.0645C42.5092 33.0516 40.0833 30.5489 40.0833 27.4887C40.0833 26.8792 39.6006 26.3865 39.0037 26.3865C38.4067 26.3865 37.924 26.8792 37.924 27.4887C37.9113 31.7678 41.3026 35.256 45.5067 35.2689Z" fill="#0C9CD8"/>
<path d="M57.0523 2.35854C56.6458 1.99546 56.0361 1.99546 55.617 2.35854C53.3562 4.48513 51.4383 6.96183 49.9141 9.6849C48.771 8.2715 47.539 6.92293 46.218 5.67809C45.8116 5.30205 45.1892 5.30205 44.7701 5.67809C42.7125 7.63611 40.8454 9.8016 39.2069 12.1357C36.7174 11.0464 34.0882 10.3333 31.3956 10.0091V7.61018C33.1865 7.61018 34.6471 6.11897 34.6471 4.29062C34.6471 2.46228 33.2119 0.971069 31.4083 0.971069H24.9052C23.1143 0.971069 21.6536 2.46228 21.6536 4.29062C21.6536 6.11897 23.1143 7.61018 24.9052 7.61018V10.022C19.6976 10.6315 14.7695 12.7321 10.6797 16.0517L8.68559 14.0159C7.41546 12.7192 5.35784 12.7192 4.08771 14.0159C2.81757 15.3126 2.81757 17.4132 4.08771 18.7099L6.08182 20.7458C-1.57709 30.6266 -2.04704 44.4624 4.92599 54.862C11.899 65.2615 24.7147 69.8 36.5142 66.0655C48.3137 62.331 56.3537 51.1923 56.341 38.5884C56.341 36.8767 56.1886 35.1651 55.8837 33.4664C56.8998 31.6381 57.4333 29.5763 57.4333 27.4756C57.4333 27.0996 57.4206 26.7236 57.3952 26.3475C61.7263 25.8288 64.9906 22.1073 65.016 17.6596C65.016 9.58116 57.3825 2.64381 57.0523 2.35854ZM45.5067 8.03809C47.8819 10.437 55.2614 18.6321 55.2614 27.4886C55.2614 31.0416 53.407 34.3352 50.3841 36.1117C47.3611 37.8881 43.6524 37.8881 40.6294 36.1117C37.6065 34.3352 35.7521 31.0416 35.7521 27.4886C35.7521 18.6451 43.1316 10.437 45.5067 8.03809ZM28.1567 57.4035C27.5598 57.4035 27.0771 57.8963 27.0771 58.5057V60.6582C15.9762 60.0877 7.09792 51.0237 6.53906 39.6906H8.64748C9.24445 39.6906 9.7271 39.1978 9.7271 38.5884C9.7271 37.9789 9.24445 37.4862 8.64748 37.4862H6.53906C7.09792 26.153 15.9762 17.0891 27.0771 16.5185V35.4763C25.5911 36.0079 24.6893 37.564 24.956 39.1589C25.2227 40.7539 26.5818 41.9079 28.1567 41.9079C28.6394 41.9079 29.1093 41.7912 29.5539 41.5708L42.687 54.9657C38.991 58.389 34.2407 60.3989 29.249 60.6582V58.5057C29.249 57.8963 28.7537 57.4035 28.1567 57.4035ZM33.5802 27.5275C33.5802 28.6556 33.7453 29.7708 34.0501 30.8471H29.249V27.5275H33.5802ZM28.1567 37.4862C28.7537 37.4862 29.2363 37.9789 29.2363 38.5884C29.2363 39.1978 28.7537 39.6906 28.1567 39.6906C27.5598 39.6906 27.0771 39.1978 27.0771 38.5884C27.0771 37.9789 27.5598 37.4862 28.1567 37.4862ZM29.249 35.4763V33.0644H34.9138C35.5362 34.3093 36.3745 35.4244 37.3652 36.384H30.57C30.2016 35.969 29.7571 35.6578 29.249 35.4763ZM33.7072 25.3102H29.249V21.9906H34.3677C34.0628 23.0798 33.8342 24.195 33.7072 25.3102ZM35.079 19.7862H29.2363V16.5185C31.4972 16.6352 33.7326 17.102 35.8537 17.9319C35.5743 18.5284 35.3203 19.1508 35.079 19.7862ZM44.2112 53.4226L40.5278 49.6622H46.9039C46.1418 51.0108 45.24 52.2686 44.2112 53.4226ZM48.0089 47.4448H38.3686L35.1171 44.1253H49.1266C48.8472 45.2664 48.4662 46.3686 48.0089 47.4448ZM49.5712 41.9079H32.9451L31.0907 40.0147C31.3067 39.5739 31.4083 39.0811 31.421 38.5884H40.5786C43.4999 39.9629 46.8404 40.0666 49.8252 38.8477C49.8125 39.8851 49.7236 40.8965 49.5712 41.9079ZM23.8256 4.29062C23.8256 3.68117 24.3082 3.18843 24.9052 3.18843H31.4083C32.0052 3.18843 32.4879 3.68117 32.4879 4.29062C32.4879 4.90007 32.0052 5.39282 31.4083 5.39282H24.9052C24.3082 5.39282 23.8256 4.90007 23.8256 4.29062ZM27.0771 7.61018H29.249V9.85347C28.8934 9.8405 28.5251 9.82754 28.1694 9.82754C27.8138 9.82754 27.4455 9.8405 27.0898 9.85347V7.61018H27.0771ZM5.62457 17.1539C5.20542 16.726 5.20542 16.0258 5.62457 15.5849C6.04371 15.144 6.72958 15.157 7.16143 15.5849L9.02852 17.491C8.49507 17.9968 7.98702 18.5154 7.49166 19.0601L5.62457 17.1539ZM54.1691 38.5884C54.1691 52.9688 42.9665 64.7428 28.8807 65.1448C14.7949 65.5468 2.96999 54.4341 2.18251 40.0796C1.39502 25.7251 11.9625 13.3286 25.9975 12.1357C26.7088 12.0708 27.4328 12.0319 28.1694 12.0319C31.5353 12.0319 34.8757 12.6932 37.9876 14.0029C37.6065 14.6253 37.2255 15.2607 36.8698 15.922C27.1279 12.0319 16.0397 15.0662 9.52388 23.417C3.00809 31.7677 2.56355 43.4899 8.46967 52.3204C14.3758 61.151 25.21 65.0151 35.1933 61.8642C45.1892 58.7132 52.0098 49.2862 52.0098 38.6013C52.0098 38.3161 51.9844 38.0308 51.9717 37.7325C52.7211 37.2268 53.4197 36.6433 54.042 35.995C54.1309 36.8508 54.1691 37.7196 54.1691 38.5884ZM57.1285 24.1561C56.1759 19.5787 54.2199 15.2866 51.4002 11.5911C52.6957 9.04952 54.3596 6.72842 56.341 4.70557C58.17 6.57282 62.8441 11.9152 62.8441 17.6466C62.8187 20.9921 60.3673 23.7671 57.1285 24.1561Z" fill="#0C9CD8"/>
</svg>
