<svg width="60" height="68" viewBox="0 0 60 68" fill="none" xmlns="http://www.w3.org/2000/svg">
<mask id="path-1-inside-1" fill="white">
<path d="M47.3536 48.009L41.2267 45.9602L39.0272 41.5461C41.0087 39.5223 42.3845 36.8446 42.8485 34.0517L43.1228 32.4019H45.4688C47.6011 32.4019 49.3359 30.6612 49.3359 28.5215V20.3728C49.3359 9.67469 40.6618 0.971069 30 0.971069C19.3108 0.971069 10.6641 9.64973 10.6641 20.3728V28.5215C10.6641 30.2077 11.7418 31.6455 13.2422 32.1794V33.6953C13.2422 35.835 14.977 37.5757 17.1094 37.5757H18.2414C18.8002 38.7937 19.5235 39.9219 20.4037 40.9353C20.5862 41.1459 20.7766 41.35 20.9717 41.5485L18.7733 45.9602L12.6463 48.0092C5.52225 50.3927 0.351562 57.9179 0.351562 65.9022C0.351562 66.6166 0.928676 67.1957 1.64062 67.1957H58.3594C59.0712 67.1957 59.6484 66.6166 59.6484 65.9022C59.6484 57.9179 54.4779 50.3927 47.3536 48.009ZM46.7578 28.5215C46.7578 29.2348 46.1795 29.815 45.4688 29.815H43.5014C43.8291 27.2682 44.0474 24.558 44.1352 21.8887C44.1378 21.8135 44.1399 21.7402 44.1422 21.6663H46.7578V28.5215ZM14.5312 29.815C13.8205 29.815 13.2422 29.2348 13.2422 28.5215V21.6663H15.8587C15.863 21.8012 15.8675 21.9367 15.8725 22.0732C15.8726 22.0778 15.8729 22.0824 15.873 22.087V22.0882C15.9633 24.6844 16.1788 27.3242 16.499 29.8149L14.5312 29.815ZM17.1094 34.9888C16.3986 34.9888 15.8203 34.4085 15.8203 33.6953V32.4019H16.8771L17.1514 34.0522C17.2037 34.3659 17.2681 34.6784 17.3424 34.9888H17.1094ZM15.8225 19.0794H13.2912C13.9441 10.4105 21.1541 3.55797 30 3.55797C38.8066 3.55797 46.0483 10.4096 46.7087 19.0794H44.1776C44.0848 11.936 38.2875 6.14487 31.1538 6.14487H28.8464C21.7129 6.14487 15.9152 11.936 15.8225 19.0794ZM28.8463 8.73177H31.1537C36.9299 8.73177 41.6049 13.4724 41.6016 19.2617C41.6016 19.6688 41.5983 20.0232 41.5915 20.3456C41.5915 20.3498 41.5914 20.3541 41.5914 20.3583L39.979 20.1272C35.5988 19.4996 31.463 17.4247 28.3334 14.2844C28.0915 14.0419 27.7637 13.9056 27.4219 13.9056C23.96 13.9056 20.646 15.4882 18.4554 18.162C18.9953 12.8953 23.4326 8.73177 28.8463 8.73177ZM20.0149 34.9888C19.3696 32.8348 18.6312 26.4969 18.468 22.4355L20.203 20.1143C21.7964 17.9832 24.2754 16.6591 26.9124 16.5071C30.3822 19.8204 34.871 22.0084 39.6145 22.688L41.5122 22.9601C41.3854 25.6615 41.1262 28.3723 40.7548 30.8654L40.7544 30.868C40.6363 31.6695 40.5432 32.1854 40.3055 33.6261C39.6229 37.7348 36.5675 41.4502 32.5342 42.4621C30.8742 42.8779 29.1255 42.8778 27.4665 42.4621C24.948 41.8304 22.6388 40.0819 21.1485 37.5757H23.7764C24.3085 39.0811 25.7413 40.1626 27.4219 40.1626H30C32.1366 40.1626 33.8672 38.4263 33.8672 36.2822C33.8672 34.1426 32.1324 32.4019 30 32.4019H27.4219C25.7039 32.4019 24.2923 33.5153 23.7742 34.9888H20.0149ZM27.3135 45.0798C28.1976 45.2667 29.0991 45.3623 30 45.3623C30.7052 45.3623 31.4106 45.303 32.108 45.1882L29.8302 47.6052L27.3135 45.0798ZM28.058 49.4856L23.9694 53.8241C22.8438 51.6623 21.8766 49.4123 21.0833 47.1089L22.6187 44.0277L28.058 49.4856ZM37.1628 43.5895L38.9164 47.1088C38.1219 49.4161 37.1544 51.6668 36.03 53.8261L31.6539 49.4351L37.1628 43.5895ZM26.1328 36.2822C26.1328 35.5681 26.7101 34.9888 27.4219 34.9888H30C30.7108 34.9888 31.2891 35.569 31.2891 36.2822C31.2891 36.9965 30.7117 37.5757 30 37.5757H27.4219C26.7111 37.5757 26.1328 36.9954 26.1328 36.2822ZM2.98125 64.6088C3.49211 58.2012 7.74202 52.377 13.4616 50.4632L18.8878 48.6488C19.8819 51.4071 21.1135 54.088 22.5568 56.6345C22.5593 56.6389 22.5616 56.6433 22.564 56.6476C23.6186 58.5087 24.8057 60.3277 26.0926 62.0543L27.6784 64.6088H2.98125ZM30 63.4558L28.2518 60.6396C28.2322 60.608 28.2113 60.5774 28.1891 60.5476C27.1452 59.1504 26.1715 57.6892 25.2846 56.1936L29.8818 51.3155L34.7258 56.176C33.833 57.6825 32.8559 59.1498 31.8111 60.5473C31.748 60.6318 31.8376 60.4987 30 63.4558ZM32.3216 64.6088L33.9073 62.0545C35.1998 60.3213 36.3953 58.4879 37.4604 56.6049C37.4669 56.5935 37.473 56.5819 37.4794 56.5705L37.4817 56.5664C38.9068 54.0441 40.1255 51.3865 41.1122 48.6488L46.5383 50.4632C52.258 52.377 56.5079 58.2012 57.0187 64.6088H32.3216Z"/>
</mask>
<path d="M47.3536 48.009L41.2267 45.9602L39.0272 41.5461C41.0087 39.5223 42.3845 36.8446 42.8485 34.0517L43.1228 32.4019H45.4688C47.6011 32.4019 49.3359 30.6612 49.3359 28.5215V20.3728C49.3359 9.67469 40.6618 0.971069 30 0.971069C19.3108 0.971069 10.6641 9.64973 10.6641 20.3728V28.5215C10.6641 30.2077 11.7418 31.6455 13.2422 32.1794V33.6953C13.2422 35.835 14.977 37.5757 17.1094 37.5757H18.2414C18.8002 38.7937 19.5235 39.9219 20.4037 40.9353C20.5862 41.1459 20.7766 41.35 20.9717 41.5485L18.7733 45.9602L12.6463 48.0092C5.52225 50.3927 0.351562 57.9179 0.351562 65.9022C0.351562 66.6166 0.928676 67.1957 1.64062 67.1957H58.3594C59.0712 67.1957 59.6484 66.6166 59.6484 65.9022C59.6484 57.9179 54.4779 50.3927 47.3536 48.009ZM46.7578 28.5215C46.7578 29.2348 46.1795 29.815 45.4688 29.815H43.5014C43.8291 27.2682 44.0474 24.558 44.1352 21.8887C44.1378 21.8135 44.1399 21.7402 44.1422 21.6663H46.7578V28.5215ZM14.5312 29.815C13.8205 29.815 13.2422 29.2348 13.2422 28.5215V21.6663H15.8587C15.863 21.8012 15.8675 21.9367 15.8725 22.0732C15.8726 22.0778 15.8729 22.0824 15.873 22.087V22.0882C15.9633 24.6844 16.1788 27.3242 16.499 29.8149L14.5312 29.815ZM17.1094 34.9888C16.3986 34.9888 15.8203 34.4085 15.8203 33.6953V32.4019H16.8771L17.1514 34.0522C17.2037 34.3659 17.2681 34.6784 17.3424 34.9888H17.1094ZM15.8225 19.0794H13.2912C13.9441 10.4105 21.1541 3.55797 30 3.55797C38.8066 3.55797 46.0483 10.4096 46.7087 19.0794H44.1776C44.0848 11.936 38.2875 6.14487 31.1538 6.14487H28.8464C21.7129 6.14487 15.9152 11.936 15.8225 19.0794ZM28.8463 8.73177H31.1537C36.9299 8.73177 41.6049 13.4724 41.6016 19.2617C41.6016 19.6688 41.5983 20.0232 41.5915 20.3456C41.5915 20.3498 41.5914 20.3541 41.5914 20.3583L39.979 20.1272C35.5988 19.4996 31.463 17.4247 28.3334 14.2844C28.0915 14.0419 27.7637 13.9056 27.4219 13.9056C23.96 13.9056 20.646 15.4882 18.4554 18.162C18.9953 12.8953 23.4326 8.73177 28.8463 8.73177ZM20.0149 34.9888C19.3696 32.8348 18.6312 26.4969 18.468 22.4355L20.203 20.1143C21.7964 17.9832 24.2754 16.6591 26.9124 16.5071C30.3822 19.8204 34.871 22.0084 39.6145 22.688L41.5122 22.9601C41.3854 25.6615 41.1262 28.3723 40.7548 30.8654L40.7544 30.868C40.6363 31.6695 40.5432 32.1854 40.3055 33.6261C39.6229 37.7348 36.5675 41.4502 32.5342 42.4621C30.8742 42.8779 29.1255 42.8778 27.4665 42.4621C24.948 41.8304 22.6388 40.0819 21.1485 37.5757H23.7764C24.3085 39.0811 25.7413 40.1626 27.4219 40.1626H30C32.1366 40.1626 33.8672 38.4263 33.8672 36.2822C33.8672 34.1426 32.1324 32.4019 30 32.4019H27.4219C25.7039 32.4019 24.2923 33.5153 23.7742 34.9888H20.0149ZM27.3135 45.0798C28.1976 45.2667 29.0991 45.3623 30 45.3623C30.7052 45.3623 31.4106 45.303 32.108 45.1882L29.8302 47.6052L27.3135 45.0798ZM28.058 49.4856L23.9694 53.8241C22.8438 51.6623 21.8766 49.4123 21.0833 47.1089L22.6187 44.0277L28.058 49.4856ZM37.1628 43.5895L38.9164 47.1088C38.1219 49.4161 37.1544 51.6668 36.03 53.8261L31.6539 49.4351L37.1628 43.5895ZM26.1328 36.2822C26.1328 35.5681 26.7101 34.9888 27.4219 34.9888H30C30.7108 34.9888 31.2891 35.569 31.2891 36.2822C31.2891 36.9965 30.7117 37.5757 30 37.5757H27.4219C26.7111 37.5757 26.1328 36.9954 26.1328 36.2822ZM2.98125 64.6088C3.49211 58.2012 7.74202 52.377 13.4616 50.4632L18.8878 48.6488C19.8819 51.4071 21.1135 54.088 22.5568 56.6345C22.5593 56.6389 22.5616 56.6433 22.564 56.6476C23.6186 58.5087 24.8057 60.3277 26.0926 62.0543L27.6784 64.6088H2.98125ZM30 63.4558L28.2518 60.6396C28.2322 60.608 28.2113 60.5774 28.1891 60.5476C27.1452 59.1504 26.1715 57.6892 25.2846 56.1936L29.8818 51.3155L34.7258 56.176C33.833 57.6825 32.8559 59.1498 31.8111 60.5473C31.748 60.6318 31.8376 60.4987 30 63.4558ZM32.3216 64.6088L33.9073 62.0545C35.1998 60.3213 36.3953 58.4879 37.4604 56.6049C37.4669 56.5935 37.473 56.5819 37.4794 56.5705L37.4817 56.5664C38.9068 54.0441 40.1255 51.3865 41.1122 48.6488L46.5383 50.4632C52.258 52.377 56.5079 58.2012 57.0187 64.6088H32.3216Z" fill="#0C9CD8" stroke="#F7F8FA" stroke-width="0.6" mask="url(#path-1-inside-1)"/>
</svg>
