<svg width="52" height="65" viewBox="0 0 52 65" fill="none" xmlns="http://www.w3.org/2000/svg">
<path d="M33.9147 0H8.15245C5.99483 0 3.95349 0.852713 2.4031 2.4031C0.852713 3.94057 0 5.98191 0 8.13953V56.8475C0 59.0052 0.852713 61.0465 2.4031 62.5969C3.95349 64.1473 5.99483 65 8.15245 65H43.1137C45.2713 65 47.3127 64.1473 48.8631 62.5969C50.4134 61.0465 51.2661 59.0052 51.2661 56.8475V18.1783C51.2661 17.9199 51.1499 17.6486 50.9432 17.416L34.6899 0.348837C34.4703 0.129199 34.199 0 33.9147 0ZM35.0129 3.82429L47.6227 17.0672H39.3411C36.9509 17.0672 35.0129 15.1292 35.0129 12.7519V3.82429ZM39.3411 19.2248H49.1214V56.8475C49.1214 60.155 46.4341 62.8295 43.1137 62.8295H8.15245C6.57623 62.8295 5.0646 62.2093 3.92765 61.0724C2.77778 59.9354 2.1447 58.4367 2.1447 56.8475V8.13953C2.1447 6.56331 2.77778 5.0646 3.91473 3.91473C5.05168 2.77778 6.56331 2.1447 8.15245 2.1447H32.8424V12.739C32.8553 16.3178 35.7623 19.2248 39.3411 19.2248Z" fill="#0C9CD8"/>
<path d="M12.5064 51.8223C11.9121 51.8223 11.4341 52.3003 11.4341 52.8946C11.4341 53.4889 11.9121 53.967 12.5064 53.967H38.7726C39.3669 53.967 39.8449 53.4889 39.8449 52.8946C39.8449 52.3003 39.354 51.8223 38.7467 51.8223H12.5064Z" fill="#0C9CD8"/>
<path d="M24.8449 45.2326C25.0646 45.4522 25.3359 45.5814 25.6331 45.5814C25.9302 45.5814 26.2145 45.4522 26.4212 45.2326L35.7623 35.2068C35.9561 35 36.0594 34.7287 36.0465 34.4445C36.0336 34.1473 35.9173 33.8889 35.7106 33.6951C35.5039 33.5013 35.2325 33.398 34.9483 33.4109C34.6511 33.4238 34.3928 33.5401 34.199 33.7468L26.7183 41.7701V23.0362C26.7183 22.4419 26.2403 21.9639 25.646 21.9639C25.0517 21.9639 24.5736 22.4419 24.5736 23.0362V41.7701L17.1059 33.7468C16.9121 33.5401 16.6408 33.4109 16.3566 33.4109C16.0723 33.398 15.801 33.5013 15.5943 33.6951C15.3876 33.9018 15.2584 34.1602 15.2455 34.4574C15.2325 34.7416 15.3359 35.013 15.5297 35.2197L24.8449 45.2326Z" fill="#0C9CD8"/>
</svg>
