<svg width="65" height="68" viewBox="0 0 65 68" fill="none" xmlns="http://www.w3.org/2000/svg">
<path d="M2.17075 45.219H20.692C21.8091 45.219 22.7358 44.351 22.8373 43.211C24.348 27.4189 31.7616 18.3764 45.497 15.5911V16.6663C45.497 16.9513 45.3827 17.2363 45.1923 17.4436L44.291 18.3505C43.6817 18.9723 43.3262 19.8144 43.3262 20.6953V22.0038C43.3262 23.8304 44.7861 25.3202 46.576 25.3202H57.4044C59.1943 25.3202 60.6542 23.8304 60.6542 22.0038V20.7083C60.6542 19.8273 60.3114 18.9853 59.7021 18.3634L58.8135 17.4566C58.6104 17.2493 58.4834 16.9643 58.4834 16.6663V14.8397C58.5088 13.0001 58.5596 9.92976 56.1222 7.68856C53.4437 5.21417 48.4929 4.47574 41.0285 5.42145C24.056 7.59788 15.8173 18.4541 11.9201 27.0303V26.4214C11.9201 25.0352 11.0569 23.7915 9.78744 23.3122C10.1048 14.3474 15.1699 10.448 17.4422 9.15247C18.4324 9.69657 19.5876 9.83908 20.6666 9.52816C22.2153 9.10065 23.3959 7.83106 23.7387 6.23761C24.0814 4.64415 23.5355 2.98592 22.3169 1.92362L22.2534 1.8718L22.2407 1.85884C21.1871 1.04268 19.8288 0.770628 18.5466 1.12041C16.1347 1.62565 13.8497 2.63614 11.8312 4.08709C7.1216 7.31287 3.71948 13.2074 2.72931 19.8532C2.70392 20.0346 2.55159 21.084 2.41195 22.0815C2.34848 22.5479 2.2977 22.9365 2.25962 23.2733C0.914002 23.7138 0 24.9834 0 26.4214V43.0037C0 43.5867 0.2285 44.1567 0.634723 44.5712C1.04095 44.9858 1.58681 45.219 2.17075 45.219ZM12.174 32.3029C14.8779 24.1284 22.2661 10.0464 41.2951 7.62379C48.0105 6.76876 52.517 7.33878 54.7005 9.33384C56.4015 10.8884 56.3634 13.0519 56.3381 14.8008L56.3254 16.6663C56.3254 17.5473 56.6681 18.4023 57.2774 19.0241L58.1661 19.931C58.3692 20.1382 58.4834 20.4233 58.4834 20.7212V22.0167C58.4834 22.6256 58.001 23.1179 57.4044 23.1179H46.576C45.9794 23.1179 45.497 22.6256 45.497 22.0167V20.7083C45.497 20.4233 45.6112 20.1382 45.8143 19.931L46.7283 19.0112C47.325 18.3893 47.6677 17.5473 47.6677 16.6793L47.6804 14.2697C47.6804 13.9458 47.5408 13.6349 47.2996 13.4276C47.0584 13.2203 46.7283 13.1296 46.4237 13.1814C30.7587 15.8372 22.3423 25.5923 20.692 43.0037H2.17075V33.0543H11.1457C11.6154 33.0543 12.0217 32.7563 12.174 32.3029ZM4.87468 20.1771C5.76329 14.1401 8.80996 8.80268 13.0372 5.91373C14.8018 4.6312 16.8075 3.73731 18.9275 3.28388C19.5749 3.0766 20.2858 3.16729 20.857 3.55594L21.5425 2.70091L20.8951 3.58185C21.4663 4.07413 21.7456 4.83848 21.6314 5.58986C21.4917 6.44489 20.8951 7.14445 20.0826 7.37764C19.4225 7.57197 18.7116 7.42946 18.1658 6.98899C17.8357 6.72989 17.3914 6.67808 17.0233 6.85944C14.8779 7.92175 8.0356 12.1839 7.60399 23.079H4.46845C4.5954 22.1333 4.78582 20.7989 4.87468 20.1771ZM2.17075 26.4214C2.17075 25.8125 2.65314 25.3202 3.24978 25.3202H8.67032C9.26696 25.3202 9.74935 25.8125 9.74935 26.4214V30.839H2.17075V26.4214Z" fill="#0C9CD8"/>
<path d="M39.5814 30.4371C39.1751 30.8776 38.9593 31.4735 38.9974 32.0824L41.0412 65.247C41.1174 66.413 42.0695 67.3198 43.212 67.3198H60.7811C61.9236 67.3198 62.8757 66.413 62.9519 65.247L64.9957 32.0824C65.0338 31.4735 64.818 30.8776 64.4117 30.4242C64.0055 29.9837 63.4343 29.7246 62.8249 29.7246H41.1682C40.5715 29.7376 40.0003 29.9837 39.5814 30.4371ZM60.7811 65.1175H43.212L42.1837 48.4186C45.1796 47.9911 48.074 47.0065 50.7144 45.5167C53.3041 44.2212 55.7541 43.0034 58.7881 43.0034C59.9052 42.9905 61.035 43.12 62.1267 43.3921L60.7811 65.1175ZM62.8249 31.9529L62.2537 41.1638C61.1112 40.9177 59.9433 40.7881 58.7754 40.8011C55.2336 40.8011 52.4409 42.1873 49.7496 43.5346C47.3504 44.8948 44.7353 45.8017 42.0314 46.2292L41.1555 31.9658L62.8249 31.9529Z" fill="#0C9CD8"/>
</svg>
