<svg width="19" height="19" viewBox="0 0 19 19" fill="none" xmlns="http://www.w3.org/2000/svg">
<path d="M4.75039 3.56405H4.80006C5.29058 3.56405 5.69107 3.16667 5.69107 2.67304V2.375V0.891013C5.69107 0.40049 5.29369 0 4.80006 0H4.75039C4.25987 0 3.85938 0.397386 3.85938 0.891013V2.375V2.67304C3.85938 3.16356 4.25987 3.56405 4.75039 3.56405Z" fill="#0C9CD8"/>
<path d="M13.9516 3.56405H14.0012C14.4918 3.56405 14.8922 3.16667 14.8922 2.67304V2.375V0.891013C14.8922 0.397386 14.4949 0 14.0012 0H13.9516C13.461 0 13.0605 0.397386 13.0605 0.891013V2.375V2.67304C13.0637 3.16356 13.461 3.56405 13.9516 3.56405Z" fill="#0C9CD8"/>
<path d="M16.625 2.375H15.7837V2.67304C15.7837 3.65408 14.9858 4.45507 14.0016 4.45507H13.952C12.9709 4.45507 12.1699 3.65719 12.1699 2.67304V2.375H6.5817V2.67304C6.5817 3.65408 5.78382 4.45507 4.79967 4.45507H4.75C3.76895 4.45507 2.96797 3.65719 2.96797 2.67304V2.375H2.375C1.06487 2.375 0 3.43987 0 4.75V16.625C0 17.9351 1.06487 19 2.375 19H16.625C17.9351 19 19 17.9351 19 16.625V4.75C19 3.43987 17.9351 2.375 16.625 2.375ZM17.8141 16.625C17.8141 17.2801 17.2832 17.8109 16.6281 17.8109H2.3781C1.72304 17.8109 1.19216 17.2801 1.19216 16.625V7.125H17.8172V16.625H17.8141Z" fill="#0C9CD8"/>
<path d="M4.75017 11.5522C5.55603 11.5522 6.20932 10.8989 6.20932 10.093C6.20932 9.28713 5.55603 8.63385 4.75017 8.63385C3.9443 8.63385 3.29102 9.28713 3.29102 10.093C3.29102 10.8989 3.9443 11.5522 4.75017 11.5522Z" fill="#0C9CD8"/>
<path d="M9.50017 11.5522C10.306 11.5522 10.9593 10.8989 10.9593 10.093C10.9593 9.28713 10.306 8.63385 9.50017 8.63385C8.6943 8.63385 8.04102 9.28713 8.04102 10.093C8.04102 10.8989 8.6943 11.5522 9.50017 11.5522Z" fill="#0C9CD8"/>
<path d="M14.2502 11.5522C15.056 11.5522 15.7093 10.8989 15.7093 10.093C15.7093 9.28713 15.056 8.63385 14.2502 8.63385C13.4443 8.63385 12.791 9.28713 12.791 10.093C12.791 10.8989 13.4443 11.5522 14.2502 11.5522Z" fill="#0C9CD8"/>
<path d="M4.75017 16.3021C5.55603 16.3021 6.20932 15.6489 6.20932 14.843C6.20932 14.0371 5.55603 13.3839 4.75017 13.3839C3.9443 13.3839 3.29102 14.0371 3.29102 14.843C3.29102 15.6489 3.9443 16.3021 4.75017 16.3021Z" fill="#0C9CD8"/>
<path d="M9.50017 16.3021C10.306 16.3021 10.9593 15.6489 10.9593 14.843C10.9593 14.0371 10.306 13.3839 9.50017 13.3839C8.6943 13.3839 8.04102 14.0371 8.04102 14.843C8.04102 15.6489 8.6943 16.3021 9.50017 16.3021Z" fill="#0C9CD8"/>
<path d="M14.2502 16.3021C15.056 16.3021 15.7093 15.6489 15.7093 14.843C15.7093 14.0371 15.056 13.3839 14.2502 13.3839C13.4443 13.3839 12.791 14.0371 12.791 14.843C12.791 15.6489 13.4443 16.3021 14.2502 16.3021Z" fill="#0C9CD8"/>
</svg>
