<svg width="38" height="40" viewBox="0 0 38 40" fill="none" xmlns="http://www.w3.org/2000/svg">
<path d="M37.4766 10.8281L27.2891 0.234375C27.1406 0.0859375 26.9453 0 26.7344 0H11.5469C9.84375 0 8.46094 1.38281 8.46094 3.07812V13.8438H2.30469C1.03125 13.8438 0 14.8828 0 16.1484V27.6875C0 28.9688 1.03125 30 2.30469 30H8.46094V36.9219C8.46094 38.6172 9.84375 40 11.5469 40H34.6094C36.3125 40 37.6953 38.6172 37.6953 36.9219V11.3594C37.6953 11.1562 37.6172 10.9688 37.4766 10.8281ZM26.9219 2.07812L35.2891 10.7734H26.9219V2.07812ZM2.30469 28.4609C1.88281 28.4609 1.53906 28.1172 1.53906 27.6953V16.1484C1.53906 15.7266 1.88281 15.3828 2.30469 15.3828H23.0781C23.5 15.3828 23.8438 15.7266 23.8438 16.1484V27.6875C23.8438 28.1094 23.5 28.4531 23.0781 28.4531H2.30469V28.4609ZM36.1562 36.9219C36.1562 37.7656 35.4609 38.4609 34.6094 38.4609H11.5469C10.6953 38.4609 10 37.7734 10 36.9219V30H23.0781C24.3516 30 25.3828 28.9688 25.3828 27.6953V16.1484C25.3828 14.875 24.3516 13.8438 23.0781 13.8438H10V3.07812C10 2.22656 10.6953 1.53125 11.5469 1.53125H25.3906V11.5312C25.3906 11.9531 25.7344 12.2969 26.1562 12.2969H36.1562V36.9219Z" fill="#0465AC"/>
<path d="M9.07031 20.5859C8.92969 20.1641 8.71875 19.8047 8.4375 19.5156C8.16406 19.2266 7.82812 19.0234 7.4375 18.9063C7.14844 18.8203 6.72656 18.7812 6.17969 18.7812H3.74219V25.3906H6.25C6.74219 25.3906 7.13281 25.3438 7.42969 25.25C7.82031 25.125 8.13281 24.9453 8.36719 24.7266C8.67188 24.4297 8.90625 24.0391 9.07812 23.5625C9.21094 23.1719 9.28125 22.7031 9.28125 22.1563C9.28125 21.5234 9.21094 21.0078 9.07031 20.5859ZM7.76562 23.2969C7.67188 23.5938 7.5625 23.8047 7.41406 23.9375C7.27344 24.0703 7.09375 24.1562 6.875 24.2109C6.71094 24.25 6.4375 24.2734 6.07031 24.2734H5.07812V19.8984H5.67969C6.22656 19.8984 6.58594 19.9219 6.77344 19.9609C7.02344 20.0156 7.22656 20.1172 7.39062 20.2734C7.55469 20.4297 7.67969 20.6406 7.76562 20.9141C7.85938 21.1875 7.89844 21.5781 7.89844 22.0937C7.90625 22.5937 7.85938 23 7.76562 23.2969Z" fill="#0465AC"/>
<path d="M21.8203 22.9531C21.7109 23.4375 21.5234 23.7891 21.2734 24.0156C21.0156 24.2422 20.7109 24.3516 20.3594 24.3516C19.875 24.3516 19.4844 24.1719 19.1875 23.8203C18.8906 23.4687 18.7344 22.8672 18.7344 22.0391C18.7344 21.25 18.8906 20.6797 19.1953 20.3281C19.5 19.9766 19.8984 19.7969 20.3906 19.7969C20.7422 19.7969 21.0469 19.8984 21.2969 20.0938C21.5469 20.2891 21.7109 20.5625 21.7891 20.9063L23.1094 20.5938C22.9609 20.0625 22.7344 19.6562 22.4297 19.375C21.9219 18.8984 21.2656 18.6562 20.4609 18.6562C19.5391 18.6562 18.7891 18.9609 18.2187 19.5703C17.6484 20.1797 17.3672 21.0312 17.3672 22.1328C17.3672 23.1719 17.6484 23.9922 18.2109 24.5937C18.7734 25.1953 19.5 25.4922 20.375 25.4922C21.0859 25.4922 21.6719 25.3203 22.1328 24.9688C22.5937 24.6172 22.9219 24.0859 23.125 23.3594L21.8203 22.9531Z" fill="#0465AC"/>
<path d="M15.6797 19.5703C15.0938 18.9688 14.3125 18.6641 13.3438 18.6641C12.8047 18.6641 12.3281 18.75 11.9219 18.9219C11.6094 19.0547 11.3281 19.25 11.0703 19.5156C10.8125 19.7813 10.6016 20.0859 10.4531 20.4219C10.25 20.875 10.1484 21.4453 10.1484 22.1172C10.1484 23.1719 10.4375 23.9922 11.0156 24.5937C11.5938 25.1953 12.375 25.4922 13.3594 25.4922C14.3281 25.4922 15.1016 25.1875 15.6875 24.5859C16.2656 23.9844 16.5547 23.1484 16.5547 22.0859C16.5547 21.0156 16.2578 20.1719 15.6797 19.5703ZM14.6641 23.7812C14.3203 24.1641 13.8828 24.3594 13.3516 24.3594C12.8203 24.3594 12.3828 24.1641 12.0391 23.7812C11.6953 23.3984 11.5234 22.8281 11.5234 22.0781C11.5234 21.3203 11.6953 20.75 12.0313 20.375C12.3672 20 12.8125 19.8125 13.3594 19.8125C13.9063 19.8125 14.3516 20 14.6797 20.375C15.0156 20.75 15.1797 21.3125 15.1797 22.0703C15.1719 22.8281 15 23.3984 14.6641 23.7812Z" fill="#0465AC"/>
</svg>
