<svg width="13" height="12" viewBox="0 0 13 12" fill="none" xmlns="http://www.w3.org/2000/svg">
<path d="M1 6V11.1429C1 11.616 1.37417 12 1.83333 12H6V6H1Z" fill="white"/>
<path d="M12.1875 2.85123H9.61675C9.80119 2.74021 9.95963 2.62991 10.0701 2.53107C10.7258 1.95018 10.7258 1.00473 10.0701 0.423844C9.43313 -0.141997 8.32325 -0.140565 7.68706 0.423844C7.33444 0.735415 6.40006 2.0039 6.52925 2.85123H6.47075C6.59913 2.0039 5.66475 0.735415 5.31294 0.423844C4.67594 -0.140565 3.56606 -0.140565 2.92987 0.423844C2.275 1.00473 2.275 1.95018 2.92906 2.53107C3.04037 2.62991 3.19881 2.74021 3.38325 2.85123H0.8125C0.364812 2.85123 0 3.17283 0 3.56749V4.64187C0 4.83956 0.182 5 0.40625 5H5.6875V3.56749H7.3125V5H12.5938C12.818 5 13 4.83956 13 4.64187V3.56749C13 3.17283 12.636 2.85123 12.1875 2.85123ZM5.63956 2.8276C5.63956 2.8276 5.60544 2.85123 5.48925 2.85123C4.92781 2.85123 3.85613 2.33696 3.50594 2.02611C3.1655 1.72385 3.1655 1.23106 3.50594 0.928804C3.67088 0.782688 3.88944 0.702468 4.12181 0.702468C4.35337 0.702468 4.57194 0.782688 4.73688 0.928804C5.2845 1.41443 5.82888 2.65498 5.63956 2.8276ZM7.50994 2.85123C7.39456 2.85123 7.36044 2.82831 7.36044 2.8276C7.17112 2.65498 7.7155 1.41443 8.26313 0.928804C8.59056 0.637289 9.16337 0.635856 9.49406 0.928804C9.83531 1.23106 9.83531 1.72385 9.49406 2.02611C9.14388 2.33696 8.07219 2.85123 7.50994 2.85123Z" fill="white"/>
<path d="M7 6V12H11.1667C11.6267 12 12 11.616 12 11.1429V6H7Z" fill="white"/>
</svg>
