<svg width="33" height="32" viewBox="0 0 33 32" fill="none" xmlns="http://www.w3.org/2000/svg">
<path d="M14.9362 6.92126C16.4098 6.92126 17.6034 5.7277 17.6034 4.25408C17.6034 2.78047 16.4098 1.58691 14.9362 1.58691C13.4626 1.58691 12.269 2.78047 12.269 4.25408C12.269 5.72103 13.4626 6.91459 14.9362 6.92126ZM14.9362 2.65378C15.823 2.65378 16.5365 3.36725 16.5365 4.25408C16.5365 5.14092 15.823 5.85439 14.9362 5.85439C14.0494 5.85439 13.3359 5.14092 13.3359 4.25408C13.3359 3.36725 14.0494 2.65378 14.9362 2.65378Z" fill="#0C9CD8"/>
<path d="M2.13374 11.1887C3.31396 11.1887 4.26747 10.2352 4.26747 9.055C4.26747 7.87478 3.31396 6.92126 2.13374 6.92126C0.953514 6.92126 0 7.87478 0 9.055C0 10.2286 0.953514 11.1887 2.13374 11.1887ZM2.13374 7.98813C2.72051 7.98813 3.2006 8.46822 3.2006 9.055C3.2006 9.64178 2.72051 10.1219 2.13374 10.1219C1.54696 10.1219 1.06687 9.64178 1.06687 9.055C1.06687 8.46822 1.54696 7.98813 2.13374 7.98813Z" fill="#0C9CD8"/>
<path d="M23.3911 0.233377C23.2844 0.086683 23.1177 0 22.9377 0C22.7576 0 22.5909 0.086683 22.4843 0.233377C22.2175 0.660125 17.3166 8.40159 15.0295 14.1693C12.589 9.34177 9.54847 4.55419 9.51513 4.50085C9.40844 4.35416 9.24175 4.26747 9.06171 4.26747C8.88168 4.26747 8.71498 4.35416 8.60829 4.50085C8.26823 5.05429 0 18.1034 0 22.9243C0 27.3385 3.17393 31.1125 7.52142 31.866C11.8689 32.6195 16.1297 30.1324 17.61 25.9782C20.3638 27.992 24.0179 28.292 27.0584 26.7451C30.099 25.1981 32.0127 22.0708 32.0061 18.6635C32.0061 13.8426 23.7378 0.786815 23.3911 0.233377ZM9.06838 30.9258C4.65421 30.9192 1.07354 27.3385 1.06687 22.9243C1.06687 19.0303 7.32138 8.6283 9.06838 5.79443C10.0819 7.42807 12.589 11.5822 14.5227 15.5496C14.1493 16.5498 13.9293 17.5967 13.8693 18.6569C13.8693 20.1438 14.236 21.6108 14.9428 22.9243H14.9362C14.9295 26.0116 12.549 28.5387 9.52847 28.7721C9.26842 28.7921 9.06838 29.0055 9.06838 29.2655V29.3322C9.06838 29.6256 9.32176 29.859 9.61515 29.8323C12.6691 29.5856 15.2362 27.3518 15.863 24.3113C16.1297 24.638 16.4164 24.9514 16.7232 25.2381C15.703 28.6121 12.5957 30.9192 9.06838 30.9258ZM22.9377 26.6584C18.5235 26.6517 14.9428 23.071 14.9362 18.6569C14.9362 14.7628 21.184 4.36082 22.9377 1.52696C24.6913 4.36082 30.9392 14.7628 30.9392 18.6569C30.9325 23.071 27.3518 26.6517 22.9377 26.6584Z" fill="#0C9CD8"/>
<path d="M28.7855 19.1502C28.5455 21.9974 26.2784 24.2645 23.4312 24.5046C23.1511 24.5313 22.9377 24.758 22.9377 25.038C22.9377 25.3514 23.2045 25.5981 23.5179 25.5715C26.8852 25.2914 29.5657 22.6042 29.8457 19.2436C29.8724 18.9302 29.6257 18.6635 29.3123 18.6635C29.0389 18.6568 28.8055 18.8702 28.7855 19.1502Z" fill="#0C9CD8"/>
</svg>
