<svg width="38" height="40" viewBox="0 0 38 40" fill="none" xmlns="http://www.w3.org/2000/svg">
<path d="M37.4766 10.8281L27.2891 0.234375C27.1406 0.0859375 26.9453 0 26.7344 0H11.5469C9.84375 0 8.46094 1.38281 8.46094 3.07812V13.8438H2.30469C1.03125 13.8438 0 14.8828 0 16.1484V27.6875C0 28.9688 1.03125 30 2.30469 30H8.46094V36.9219C8.46094 38.6172 9.84375 40 11.5469 40H34.6094C36.3125 40 37.6953 38.6172 37.6953 36.9219V11.3594C37.6953 11.1562 37.6172 10.9688 37.4766 10.8281ZM26.9219 2.07812L35.2891 10.7734H26.9219V2.07812ZM2.30469 28.4609C1.88281 28.4609 1.53906 28.1172 1.53906 27.6953V16.1484C1.53906 15.7266 1.88281 15.3828 2.30469 15.3828H23.0781C23.5 15.3828 23.8438 15.7266 23.8438 16.1484V27.6875C23.8438 28.1094 23.5 28.4531 23.0781 28.4531H2.30469V28.4609ZM36.1562 36.9219C36.1562 37.7656 35.4609 38.4609 34.6094 38.4609H11.5469C10.6953 38.4609 10 37.7734 10 36.9219V30H23.0781C24.3516 30 25.3828 28.9688 25.3828 27.6953V16.1484C25.3828 14.875 24.3516 13.8438 23.0781 13.8438H10V3.07812C10 2.22656 10.6953 1.53125 11.5469 1.53125H25.3906V11.5312C25.3906 11.9531 25.7344 12.2969 26.1562 12.2969H36.1562V36.9219Z" fill="#D10000"/>
<path d="M9.19531 19.5234C8.9375 19.1953 8.625 18.9766 8.24219 18.875C7.99219 18.8125 7.46875 18.7734 6.65625 18.7734H4.51562V25.3828H5.85156V22.8906H6.71875C7.32031 22.8906 7.78125 22.8594 8.10156 22.7969C8.33594 22.7422 8.57031 22.6406 8.79688 22.4844C9.02344 22.3281 9.21094 22.1094 9.35938 21.8359C9.50781 21.5625 9.57813 21.2188 9.57813 20.8125C9.57813 20.2813 9.45313 19.8516 9.19531 19.5234ZM8.05469 21.3438C7.95313 21.4922 7.8125 21.6016 7.64063 21.6719C7.46094 21.7422 7.10938 21.7734 6.58594 21.7734H5.85938V19.8984H6.5C6.98438 19.8984 7.29688 19.9141 7.46094 19.9453C7.67969 19.9844 7.85938 20.0859 8 20.2422C8.14063 20.3984 8.21094 20.5938 8.21094 20.8359C8.20313 21.0234 8.15625 21.1953 8.05469 21.3438Z" fill="#D10000"/>
<path d="M15.9922 20.5859C15.8516 20.1641 15.6406 19.8047 15.3594 19.5156C15.0781 19.2266 14.75 19.0234 14.3594 18.9063C14.0703 18.8203 13.6484 18.7812 13.1016 18.7812H10.6641V25.3906H13.1719C13.6641 25.3906 14.0547 25.3438 14.3516 25.25C14.7422 25.125 15.0547 24.9453 15.2891 24.7187C15.5938 24.4219 15.8281 24.0312 16 23.5547C16.1328 23.1641 16.2031 22.6953 16.2031 22.1484C16.2109 21.5234 16.1406 21.0078 15.9922 20.5859ZM14.6953 23.2969C14.6016 23.5938 14.4922 23.8047 14.3438 23.9375C14.2031 24.0703 14.0234 24.1562 13.8047 24.2109C13.6406 24.25 13.3672 24.2734 13 24.2734H12V19.8984H12.6016C13.1484 19.8984 13.5078 19.9219 13.6953 19.9609C13.9453 20.0156 14.1484 20.1172 14.3125 20.2734C14.4766 20.4297 14.6016 20.6406 14.6875 20.9141C14.7813 21.1875 14.8203 21.5781 14.8203 22.0937C14.8281 22.5937 14.7813 23 14.6953 23.2969Z" fill="#D10000"/>
<path d="M21.8828 19.8984V18.7734H17.3516V25.3828H18.6875V22.5781H21.4453V21.4609H18.6875V19.8984H21.8828Z" fill="#D10000"/>
</svg>
