<svg width="32" height="32" viewBox="0 0 32 32" fill="none" xmlns="http://www.w3.org/2000/svg">
<path d="M17.8124 23.8938C18.0187 24.05 18.3062 24.0313 18.4937 23.8625L24.8937 17.9938C25.1124 17.7938 25.1249 17.4563 24.9249 17.2375C24.7249 17.0188 24.3874 17.0063 24.1687 17.2063L18.0937 22.775L16.3187 21.4375C16.0812 21.2625 15.7499 21.3063 15.5749 21.5438C15.3999 21.7813 15.4437 22.1125 15.6812 22.2875L17.8124 23.8938Z" fill="#0C9CD8"/>
<path d="M0.531283 8C1.28753 8.05625 2.00628 8.31875 2.61878 8.76875C2.93128 9 3.20628 9.26875 3.44378 9.575C1.40003 13.1812 0.243783 16.5938 0.0250328 19.7313C-0.181217 22.875 0.893783 25.9688 3.00003 28.3125C4.98753 30.5562 7.81253 31.8875 10.8063 31.9937C10.9313 32 11.0563 32 11.1813 32C14.1438 32 16.9813 30.8188 19.075 28.725C20.9875 29.0188 22.95 28.625 24.6063 27.625L28.3563 31.375C29.1938 32.1625 30.5125 32.1437 31.325 31.325C32.1375 30.5063 32.1625 29.1938 31.375 28.3563L27.625 24.6063C29.1875 21.9688 29.2188 18.6938 27.7 16.0312C26.1813 13.3687 23.35 11.725 20.2813 11.7312C20.2063 11.7312 20.1375 11.7375 20.0688 11.7437C17.9563 7.54375 15.2188 3.6875 11.9438 0.31875C11.7438 0.1125 11.475 0 11.1875 0H11.1813C10.9 0 10.6313 0.11875 10.4375 0.31875C9.11253 1.675 7.87503 3.11875 6.73128 4.625C6.11253 3.35625 5.81253 1.95 5.86878 0.53125C5.86878 0.2375 5.62503 0 5.33128 0C5.03753 0 4.80003 0.2375 4.80003 0.53125C4.80003 6.80625 0.712533 6.93125 0.531283 6.93125C0.237533 6.93125 3.28303e-05 7.16875 3.28303e-05 7.4625C3.28303e-05 7.7625 0.237533 8 0.531283 8ZM30.6188 29.1125C31.0063 29.5312 30.9938 30.1875 30.5875 30.5875C30.1813 30.9937 29.5313 31.0063 29.1125 30.6187L25.5063 27.0125C26.0688 26.575 26.575 26.0688 27.0125 25.5063L30.6188 29.1125ZM27.75 20.275C27.75 23.3 25.9313 26.025 23.1375 27.1812C20.3438 28.3375 17.125 27.7 14.9875 25.5625C12.85 23.425 12.2125 20.2063 13.3688 17.4188C14.525 14.6313 17.25 12.8062 20.275 12.8062C24.4 12.8062 27.7438 16.15 27.75 20.275ZM11.1875 1.06875C14.2813 4.2625 16.8875 7.89375 18.925 11.85C14.9938 12.475 12.0125 15.7312 11.75 19.7062C11.4875 23.6812 14 27.3063 17.8125 28.45C15.8875 30.1313 13.3938 31.0125 10.8438 30.925C8.13753 30.8312 5.58753 29.625 3.79378 27.6C1.87503 25.475 0.900033 22.6625 1.09378 19.8C1.28753 16.975 2.30003 13.8937 4.08753 10.6187C4.59378 11.8125 4.83753 13.1 4.80003 14.3938C4.80003 14.6875 5.03753 14.925 5.33128 14.925C5.62503 14.925 5.86253 14.6875 5.86253 14.3938C5.86253 8.1125 9.95628 7.99375 10.1313 7.99375C10.425 7.99375 10.6625 7.75625 10.6625 7.4625C10.6625 7.16875 10.425 6.93125 10.1313 6.93125C9.37503 6.875 8.65628 6.6125 8.04378 6.1625C7.80003 5.98125 7.57503 5.76875 7.36878 5.5375C8.55003 3.96875 9.82503 2.475 11.1875 1.06875ZM5.33128 4.1C5.53753 4.7125 5.83753 5.29375 6.21878 5.81875C6.22503 5.83125 6.23753 5.84375 6.24378 5.85625C6.74378 6.5375 7.40628 7.0875 8.16253 7.46875C6.80003 8.1625 5.77503 9.375 5.32503 10.8375C5.13128 10.2812 4.86878 9.75625 4.53753 9.26875C4.51878 9.2375 4.50003 9.20625 4.47503 9.175C3.96878 8.45 3.28128 7.8625 2.49378 7.46875C3.85628 6.775 4.88128 5.55625 5.33128 4.1Z" fill="#0C9CD8"/>
<path d="M9.6937 28.275C4.31245 27.2938 3.74994 21.5313 3.73119 21.2875C3.70619 20.9938 3.44994 20.775 3.15619 20.8C2.86244 20.825 2.64369 21.0813 2.66869 21.375C2.67494 21.4438 3.3062 28.1938 9.5062 29.3188C9.53745 29.325 9.56869 29.325 9.60619 29.325C9.88119 29.325 10.1124 29.1125 10.1374 28.8375C10.1562 28.575 9.9687 28.325 9.6937 28.275Z" fill="#0C9CD8"/>
</svg>
