<svg width="32" height="32" viewBox="0 0 32 32" fill="none" xmlns="http://www.w3.org/2000/svg">
<path d="M18.5 17.875C18.8438 17.875 19.125 17.5938 19.125 17.25C19.125 16.9062 18.8438 16.625 18.5 16.625C18.1562 16.625 17.875 16.9062 17.875 17.25C17.875 17.5938 18.1562 17.875 18.5 17.875Z" fill="#0C9CD8"/>
<path d="M4.75 17.875C5.09375 17.875 5.375 17.5938 5.375 17.25C5.375 16.9062 5.09375 16.625 4.75 16.625C4.40625 16.625 4.125 16.9062 4.125 17.25C4.125 17.5938 4.40625 17.875 4.75 17.875Z" fill="#0C9CD8"/>
<path d="M0.625 7.875C0.96875 7.875 1.25 7.59375 1.25 7.25V1.25H7.25C7.59375 1.25 7.875 0.96875 7.875 0.625C7.875 0.28125 7.59375 0 7.25 0H0.625C0.28125 0 0 0.28125 0 0.625V7.25C0 7.59375 0.28125 7.875 0.625 7.875Z" fill="#0C9CD8"/>
<path d="M7.875 31.375C7.875 31.0312 7.59375 30.75 7.25 30.75H1.25V24.75C1.25 24.4062 0.96875 24.125 0.625 24.125C0.28125 24.125 0 24.4062 0 24.75V31.375C0 31.7188 0.28125 32 0.625 32H7.25C7.59375 32 7.875 31.7188 7.875 31.375Z" fill="#0C9CD8"/>
<path d="M31.375 24.125C31.0312 24.125 30.75 24.4062 30.75 24.75V30.75H24.75C24.4062 30.75 24.125 31.0312 24.125 31.375C24.125 31.7188 24.4062 32 24.75 32H31.375C31.7188 32 32 31.7188 32 31.375V24.75C32 24.4062 31.7188 24.125 31.375 24.125Z" fill="#0C9CD8"/>
<path d="M31.375 0H24.75C24.4062 0 24.125 0.28125 24.125 0.625C24.125 0.96875 24.4062 1.25 24.75 1.25H30.75V7.25C30.75 7.59375 31.0312 7.875 31.375 7.875C31.7188 7.875 32 7.59375 32 7.25V0.625C32 0.28125 31.7188 0 31.375 0Z" fill="#0C9CD8"/>
<path d="M4.125 27.25C4.125 27.5938 4.40625 27.875 4.75 27.875H11C11.3438 27.875 11.625 27.5938 11.625 27.25V21C11.625 20.6562 11.3438 20.375 11 20.375H4.75C4.40625 20.375 4.125 20.6562 4.125 21V27.25ZM5.375 21.625H10.375V26.625H5.375V21.625Z" fill="#0C9CD8"/>
<path d="M11 4.125H4.75C4.40625 4.125 4.125 4.40625 4.125 4.75V11C4.125 11.3438 4.40625 11.625 4.75 11.625H11C11.3438 11.625 11.625 11.3438 11.625 11V4.75C11.625 4.40625 11.3438 4.125 11 4.125ZM10.375 10.375H5.375V5.375H10.375V10.375Z" fill="#0C9CD8"/>
<path d="M27.875 4.75C27.875 4.40625 27.5938 4.125 27.25 4.125H21C20.6562 4.125 20.375 4.40625 20.375 4.75V11C20.375 11.3438 20.6562 11.625 21 11.625H27.25C27.5938 11.625 27.875 11.3438 27.875 11V4.75ZM26.625 10.375H21.625V5.375H26.625V10.375Z" fill="#0C9CD8"/>
<path d="M27.875 27.25V21C27.875 20.6562 27.5938 20.375 27.25 20.375H21C20.6562 20.375 20.375 20.6562 20.375 21V27.25C20.375 27.5938 20.6562 27.875 21 27.875H27.25C27.5938 27.875 27.875 27.5938 27.875 27.25ZM26.625 26.625H21.625V21.625H26.625V26.625Z" fill="#0C9CD8"/>
<path d="M8.5 22.875H7.25C6.90625 22.875 6.625 23.1562 6.625 23.5V24.75C6.625 25.0938 6.90625 25.375 7.25 25.375H8.5C8.84375 25.375 9.125 25.0938 9.125 24.75V23.5C9.125 23.1562 8.84375 22.875 8.5 22.875Z" fill="#0C9CD8"/>
<path d="M7.25 9.125H8.5C8.84375 9.125 9.125 8.84375 9.125 8.5V7.25C9.125 6.90625 8.84375 6.625 8.5 6.625H7.25C6.90625 6.625 6.625 6.90625 6.625 7.25V8.5C6.625 8.84375 6.90625 9.125 7.25 9.125Z" fill="#0C9CD8"/>
<path d="M23.5 9.125H24.75C25.0938 9.125 25.375 8.84375 25.375 8.5V7.25C25.375 6.90625 25.0938 6.625 24.75 6.625H23.5C23.1562 6.625 22.875 6.90625 22.875 7.25V8.5C22.875 8.84375 23.1562 9.125 23.5 9.125Z" fill="#0C9CD8"/>
<path d="M23.5 25.375H24.75C25.0938 25.375 25.375 25.0938 25.375 24.75V23.5C25.375 23.1562 25.0938 22.875 24.75 22.875H23.5C23.1562 22.875 22.875 23.1562 22.875 23.5V24.75C22.875 25.0938 23.1562 25.375 23.5 25.375Z" fill="#0C9CD8"/>
<path d="M6.625 17.25C6.625 17.5938 6.90625 17.875 7.25 17.875H15.375V21C15.375 21.3438 15.6562 21.625 16 21.625C16.3438 21.625 16.625 21.3438 16.625 21V17.25C16.625 16.9062 16.3438 16.625 16 16.625H7.25C6.90625 16.625 6.625 16.9062 6.625 17.25Z" fill="#0C9CD8"/>
<path d="M11 15.375C11.3438 15.375 11.625 15.0938 11.625 14.75C11.625 14.4062 11.3438 14.125 11 14.125H4.75C4.40625 14.125 4.125 14.4062 4.125 14.75C4.125 15.0938 4.40625 15.375 4.75 15.375H11Z" fill="#0C9CD8"/>
<path d="M13.5 15.375H16C16.3438 15.375 16.625 15.0938 16.625 14.75C16.625 14.4062 16.3438 14.125 16 14.125H13.5C13.1562 14.125 12.875 14.4062 12.875 14.75C12.875 15.0938 13.1562 15.375 13.5 15.375Z" fill="#0C9CD8"/>
<path d="M13.5 4.125C13.1562 4.125 12.875 4.40625 12.875 4.75V11C12.875 11.3438 13.1562 11.625 13.5 11.625H17.875V14.75C17.875 15.0938 18.1562 15.375 18.5 15.375H21C21.3438 15.375 21.625 15.0938 21.625 14.75C21.625 14.4062 21.3438 14.125 21 14.125H19.125V11C19.125 10.6562 18.8438 10.375 18.5 10.375H14.125V4.75C14.125 4.40625 13.8438 4.125 13.5 4.125Z" fill="#0C9CD8"/>
<path d="M27.25 14.125H23.5C23.1562 14.125 22.875 14.4062 22.875 14.75C22.875 15.0938 23.1562 15.375 23.5 15.375H27.25C27.5938 15.375 27.875 15.0938 27.875 14.75C27.875 14.4062 27.5938 14.125 27.25 14.125Z" fill="#0C9CD8"/>
<path d="M27.25 16.625H21C20.6562 16.625 20.375 16.9062 20.375 17.25C20.375 17.5938 20.6562 17.875 21 17.875H27.25C27.5938 17.875 27.875 17.5938 27.875 17.25C27.875 16.9062 27.5938 16.625 27.25 16.625Z" fill="#0C9CD8"/>
<path d="M16 22.875H13.5C13.1562 22.875 12.875 23.1562 12.875 23.5V27.25C12.875 27.5938 13.1562 27.875 13.5 27.875C13.8438 27.875 14.125 27.5938 14.125 27.25V24.125H16C16.3438 24.125 16.625 23.8438 16.625 23.5C16.625 23.1562 16.3438 22.875 16 22.875Z" fill="#0C9CD8"/>
<path d="M17.875 26.625H16C15.6562 26.625 15.375 26.9062 15.375 27.25C15.375 27.5938 15.6562 27.875 16 27.875H18.5C18.8438 27.875 19.125 27.5938 19.125 27.25V19.75C19.125 19.4062 18.8438 19.125 18.5 19.125C18.1562 19.125 17.875 19.4062 17.875 19.75V26.625Z" fill="#0C9CD8"/>
<path d="M18.5 9.125C18.8438 9.125 19.125 8.84375 19.125 8.5V4.75C19.125 4.40625 18.8438 4.125 18.5 4.125C18.1562 4.125 17.875 4.40625 17.875 4.75V7.875H16C15.6562 7.875 15.375 8.15625 15.375 8.5C15.375 8.84375 15.6562 9.125 16 9.125H18.5Z" fill="#0C9CD8"/>
</svg>
