<svg width="32" height="32" viewBox="0 0 32 32" fill="none" xmlns="http://www.w3.org/2000/svg">
<path d="M30.9293 15.999C30.9293 7.76826 24.2297 1.06868 15.999 1.06868C7.76826 1.06868 1.06868 7.76826 1.06868 15.999C1.06868 24.2297 7.76826 30.9293 15.999 30.9293C22.7673 30.9293 28.6982 26.3671 30.4293 19.8363C30.5043 19.5488 30.7981 19.38 31.0855 19.455C31.373 19.53 31.5418 19.8238 31.4668 20.1112C29.6044 27.1108 23.2423 31.998 15.999 31.998C7.16205 31.998 0 24.8422 0 15.999C0 7.16205 7.1558 0 15.999 0C24.8359 0 31.998 7.1558 31.998 15.999C31.998 16.2927 31.7605 16.5302 31.4668 16.5302C31.173 16.5302 30.9293 16.2927 30.9293 15.999ZM15.999 28.9982C23.1673 28.9982 28.9982 23.1673 28.9982 15.999C28.9982 8.8307 23.1673 2.99981 15.999 2.99981C8.8307 2.99981 2.99981 8.8307 2.99981 15.999C2.99981 21.8924 6.91832 26.8608 12.2805 28.4607C12.5617 28.5482 12.8617 28.3857 12.9492 28.0982C13.0367 27.817 12.8742 27.517 12.5867 27.4295C7.56827 25.9359 4.06849 21.2362 4.06849 15.999C4.06849 9.41816 9.42441 4.06849 15.999 4.06849C22.5736 4.06849 27.9295 9.41816 27.9295 15.999C27.9295 22.5798 22.5798 27.9295 15.999 27.9295C15.7053 27.9295 15.4678 28.167 15.4678 28.4607C15.4678 28.7607 15.7053 28.9982 15.999 28.9982ZM14.9678 13.5367C14.4303 15.1365 12.6992 16.0302 11.0743 15.524L10.8118 16.0365C10.7181 16.224 10.5306 16.3302 10.3369 16.3302C9.94313 16.3302 9.68064 15.9115 9.86188 15.5553L10.1306 15.0366C8.56821 13.8616 8.44322 11.568 9.87438 10.2369L9.43066 9.5494C9.26817 9.30567 9.33691 8.96819 9.5869 8.81195C9.83063 8.64946 10.1681 8.7182 10.3244 8.96819L10.7681 9.64939C11.5805 9.29317 12.5117 9.31192 13.3304 9.68064L13.8366 8.94944C14.0054 8.71195 14.3366 8.64946 14.5741 8.8182C14.8116 8.98694 14.8741 9.31816 14.7053 9.55565L14.1991 10.2806C14.7678 10.8431 15.1241 11.6118 15.1303 12.468L15.824 12.5867C16.1177 12.643 16.3115 12.9117 16.2552 13.2054C16.199 13.4929 15.9303 13.6929 15.6365 13.6366L14.9678 13.5367ZM14.0679 12.5305C14.0679 11.393 13.1429 10.4618 11.9992 10.4618C10.8556 10.4618 9.93063 11.3868 9.93063 12.5305C9.93063 13.6741 10.8556 14.5991 11.9992 14.5991C13.1429 14.5991 14.0679 13.6741 14.0679 12.5305ZM14.4678 22.2674C14.4678 23.336 13.5991 24.1985 12.5367 24.1985C11.4743 24.1985 10.6056 23.3298 10.6056 22.2674C10.6056 21.1987 11.4743 20.3362 12.5367 20.3362C13.5991 20.3362 14.4678 21.1987 14.4678 22.2674ZM13.3992 22.2674C13.3992 21.7861 13.0117 21.3987 12.5305 21.3987C12.0492 21.3987 11.6618 21.7861 11.6618 22.2674C11.6618 22.7486 12.0492 23.136 12.5305 23.136C13.0117 23.1298 13.3992 22.7423 13.3992 22.2674ZM19.6238 16.8364C19.6988 17.0552 19.905 17.1989 20.13 17.1989C20.2425 17.1989 20.2925 17.1739 20.555 17.0864C21.4174 18.4863 23.361 18.6738 24.4672 17.4739L24.7859 17.6614C25.0422 17.8051 25.3672 17.7239 25.5109 17.4677C25.6546 17.2114 25.5734 16.8864 25.3172 16.7427L24.9984 16.5552C25.0734 16.3177 25.1172 16.0615 25.1172 15.799C25.1172 15.5053 24.8797 15.2678 24.586 15.2678C24.2922 15.2678 24.0547 15.5053 24.0547 15.799C24.0547 16.574 23.4298 17.1989 22.6548 17.1989C21.8799 17.1989 21.2549 16.574 21.2549 15.799C21.2549 14.7991 22.2986 14.0616 23.3235 14.5678C23.5985 14.6991 23.9172 14.5741 24.0297 14.3428L24.3985 13.6554C24.536 13.3929 24.436 13.0742 24.1797 12.9367C23.9172 12.7992 23.5985 12.8992 23.461 13.1554L23.3235 13.4304C21.6361 12.9679 20.03 14.3553 20.2237 16.0865L19.9675 16.174C19.68 16.2615 19.53 16.5615 19.6238 16.8364ZM19.0926 9.50565C18.8613 9.84938 19.1051 10.3306 19.53 10.3306C19.8675 10.3306 20.1237 10.0119 20.0487 9.69314C19.9675 9.22442 19.3425 9.11193 19.0926 9.50565Z" fill="#0C9CD8"/>
<path d="M31.698 0.300405C31.9167 0.519141 31.9167 0.875369 31.698 1.0941L0.962391 31.8359C0.743655 32.0547 0.387427 32.0547 0.168691 31.8359C-0.0500454 31.6172 -0.0500454 31.261 0.168691 31.0422L30.9043 0.300405C31.123 0.0816685 31.4792 0.0816685 31.698 0.300405Z" fill="#0C9CD8"/>
</svg>
