<svg width="35" height="32" viewBox="0 0 35 32" fill="none" xmlns="http://www.w3.org/2000/svg">
<path d="M34.0683 0H3.43619C3.06013 0 2.75244 0.307689 2.75244 0.683753V6.29071C2.75244 6.66677 3.06013 6.97446 3.43619 6.97446C3.81226 6.97446 4.11995 6.66677 4.11995 6.29071V1.36751H8.29084V5.81208C8.29084 6.18814 8.59853 6.49583 8.97459 6.49583C9.35066 6.49583 9.65835 6.18814 9.65835 5.81208V1.36751H12.4617V5.81208C12.4617 6.18814 12.7694 6.49583 13.1455 6.49583C13.5216 6.49583 13.8292 6.18814 13.8292 5.81208V1.36751H16.6326V26.2084C16.6326 26.5845 16.9403 26.8922 17.3164 26.8922C17.6924 26.8922 18.0001 26.5845 18.0001 26.2084V1.36751H20.8035V23.2956C20.8035 23.6717 21.1112 23.9794 21.4873 23.9794C21.8633 23.9794 22.171 23.6717 22.171 23.2956V1.36751H24.9744V26.2084C24.9744 26.5845 25.2821 26.8922 25.6582 26.8922C26.0342 26.8922 26.3419 26.5845 26.3419 26.2084V1.36751H29.2137V23.2956C29.2137 23.6717 29.5214 23.9794 29.8974 23.9794C30.2735 23.9794 30.5812 23.6717 30.5812 23.2956V1.36751H33.3846V30.6325H13.8292V26.1674C13.8292 25.7913 13.5216 25.4837 13.1455 25.4837C12.7694 25.4837 12.4617 25.7913 12.4617 26.1674V30.6325H9.65835V26.1674C9.65835 25.7913 9.35066 25.4837 8.97459 25.4837C8.59853 25.4837 8.29084 25.7913 8.29084 26.1674V30.6325H4.11995V25.7093C4.11995 25.3332 3.81226 25.0255 3.43619 25.0255C3.06013 25.0255 2.75244 25.3332 2.75244 25.7093V31.3162C2.75244 31.6923 3.06013 32 3.43619 32H34.0683C34.4444 32 34.7521 31.6923 34.7521 31.3162V0.683753C34.7521 0.307689 34.4444 0 34.0683 0Z" fill="#0C9CD8"/>
<path d="M13.7202 15.1802L12.464 13.924C12.2203 13.6803 11.8266 13.6803 11.5828 13.924C11.3391 14.1677 11.3391 14.5615 11.5828 14.8052L11.7703 14.9927H11.5516H11.5453C10.9079 14.9927 10.2704 15.1489 9.70173 15.4364C8.90179 15.8426 7.95187 15.8426 7.15194 15.4364C5.99578 14.8489 4.62089 14.8489 3.46473 15.4364C2.6648 15.8426 1.71487 15.8426 0.914937 15.4364C0.608712 15.2801 0.233742 15.3989 0.071255 15.7114C-0.0849825 16.0176 0.033758 16.3926 0.346233 16.555C1.50239 17.1425 2.87728 17.1425 4.03344 16.555C4.83337 16.1488 5.7833 16.1488 6.58323 16.555C7.15818 16.8488 7.79563 16.9988 8.42683 16.9988C9.05803 16.9988 9.69548 16.8488 10.2704 16.555C10.6642 16.3551 11.1079 16.2488 11.5516 16.2488H11.7703L11.5828 16.4363C11.3391 16.68 11.3391 17.0738 11.5828 17.3175C11.7078 17.4425 11.8641 17.4987 12.0265 17.4987C12.189 17.4987 12.3453 17.4362 12.4703 17.3175L13.7264 16.0613C13.9639 15.8239 13.9639 15.4239 13.7202 15.1802Z" fill="#0C9CD8"/>
<path d="M13.7202 20.1986L12.4578 18.9362C12.214 18.6925 11.8203 18.6925 11.5766 18.9362C11.3328 19.1799 11.3328 19.5737 11.5766 19.8174L11.7703 20.0111H11.5516H11.5453C10.9079 20.0111 10.2704 20.1674 9.70173 20.4548C8.90179 20.8611 7.95187 20.8611 7.15194 20.4548C5.99578 19.8674 4.62089 19.8674 3.46473 20.4548C2.6648 20.8611 1.71487 20.8611 0.914937 20.4548C0.608712 20.2986 0.233742 20.4173 0.071255 20.7298C-0.0849825 21.036 0.033758 21.411 0.346233 21.5735C1.50239 22.161 2.87728 22.161 4.03344 21.5735C4.83337 21.1673 5.7833 21.1673 6.58323 21.5735C7.15818 21.8672 7.79563 22.0172 8.42683 22.0172C9.05803 22.0172 9.69548 21.8672 10.2704 21.5735C10.6642 21.3735 11.1079 21.2673 11.5516 21.2673H11.7703L11.5766 21.461C11.3328 21.7047 11.3328 22.0985 11.5766 22.3422C11.7016 22.4672 11.8578 22.5234 12.0203 22.5234C12.1828 22.5234 12.339 22.4609 12.464 22.3422L13.7264 21.0798C13.9639 20.8423 13.9639 20.4423 13.7202 20.1986Z" fill="#0C9CD8"/>
<path d="M13.7202 10.1369L12.4953 8.91205C12.2516 8.66832 11.8579 8.66832 11.6141 8.91205C11.3704 9.15578 11.3704 9.54949 11.6141 9.79322L11.7704 9.94946H11.5516H11.5454C10.9079 9.94946 10.2705 10.0995 9.7018 10.3932C8.90186 10.7994 7.95194 10.7994 7.152 10.3932C5.99584 9.80572 4.62096 9.80572 3.4648 10.3932C2.66486 10.7994 1.71494 10.7994 0.915004 10.3932C0.608779 10.2369 0.233809 10.3557 0.0713222 10.6682C-0.0911647 10.9806 0.0338252 11.3493 0.3463 11.5118C1.50246 12.0993 2.87735 12.0993 4.0335 11.5118C4.83344 11.1056 5.78336 11.1056 6.5833 11.5118C7.15825 11.8056 7.7957 11.9556 8.4269 11.9556C9.0581 11.9556 9.69555 11.8056 10.2705 11.5118C10.6642 11.3119 11.1017 11.2056 11.5454 11.2056H11.5516H11.7704L11.6141 11.3618C11.3704 11.6056 11.3704 11.9993 11.6141 12.243C11.7391 12.368 11.8954 12.4243 12.0579 12.4243C12.2203 12.4243 12.3766 12.3618 12.5016 12.243L13.7265 11.0181C13.964 10.7806 13.964 10.3807 13.7202 10.1369Z" fill="#0C9CD8"/>
<path d="M28.0067 23.5108C27.8879 23.3921 27.7317 23.3296 27.5629 23.3296C27.3942 23.3296 27.238 23.3983 27.1192 23.5108C27.0005 23.6233 26.938 23.7858 26.938 23.9545C26.938 24.1233 27.0067 24.2795 27.1192 24.3983C27.238 24.517 27.3942 24.5795 27.5629 24.5795C27.7317 24.5795 27.8879 24.5107 28.0067 24.3983C28.1254 24.2858 28.1879 24.1233 28.1879 23.9545C28.1879 23.7858 28.1191 23.6233 28.0067 23.5108Z" fill="#0C9CD8"/>
<path d="M20.3199 23.5108C20.2011 23.3921 20.0449 23.3296 19.8762 23.3296C19.7074 23.3296 19.5512 23.3983 19.4325 23.5108C19.3137 23.6233 19.2512 23.7858 19.2512 23.9545C19.2512 24.1233 19.32 24.2795 19.4325 24.3983C19.5512 24.517 19.7074 24.5795 19.8762 24.5795C20.0449 24.5795 20.2011 24.5107 20.3199 24.3983C20.4386 24.2858 20.5011 24.1233 20.5011 23.9545C20.5011 23.7858 20.4324 23.6233 20.3199 23.5108Z" fill="#0C9CD8"/>
</svg>
