<svg width="32" height="32" viewBox="0 0 32 32" fill="none" xmlns="http://www.w3.org/2000/svg">
<path d="M13.8533 26.6666C13.72 23.9999 12.2467 21.5799 9.94 20.2332L6.25333 16.1399C5.76 15.5799 4.98667 15.3399 4.26667 15.5266V8.53324C4.26667 7.35324 3.31333 6.3999 2.13333 6.3999C0.953333 6.3999 0 7.35324 0 8.53324V18.6266C0 19.4399 0.206667 20.2466 0.606667 20.9599L5.33333 29.4732V31.4666C5.33333 31.7599 5.57333 31.9999 5.86667 31.9999H13.3333C13.6267 31.9999 13.8667 31.7599 13.8667 31.4666V26.6666H13.8533ZM12.8 30.9332H6.4V29.3332C6.4 29.2399 6.38 29.1532 6.33333 29.0732L1.53333 20.4399C1.22667 19.8866 1.06667 19.2599 1.06667 18.6266V8.53324C1.06667 7.94657 1.54667 7.46657 2.13333 7.46657C2.72 7.46657 3.2 7.94657 3.2 8.53324V16.1866C2.53333 16.9599 2.54667 18.1132 3.23333 18.8732L7.6 23.6799L8.38667 22.9599L4.02 18.1532C3.67333 17.7732 3.68667 17.1799 4.05333 16.8132C4.43333 16.4332 5.04667 16.4332 5.42667 16.8132C5.44 16.8266 5.45333 16.8399 5.46 16.8532L9.2 21.0066C9.24667 21.0532 9.3 21.0932 9.36 21.1266C11.48 22.3399 12.7933 24.5999 12.7933 27.0466V30.9332H12.8Z" fill="#0C9CD8"/>
<path d="M29.8666 6.3999C28.6866 6.3999 27.7333 7.35324 27.7333 8.53324V15.5266C27.56 15.4799 27.38 15.4599 27.2066 15.4666C26.6466 15.4799 26.12 15.7199 25.7466 16.1399L22.0666 20.2332C19.76 21.5799 18.2866 23.9999 18.1533 26.6666H18.1333V31.4666C18.1333 31.7599 18.3733 31.9999 18.6666 31.9999H26.1333C26.4266 31.9999 26.6666 31.7599 26.6666 31.4666V29.4732L31.34 21.0066C31.7733 20.2666 32 19.4266 32 18.5732V8.53324C32 7.35324 31.0466 6.3999 29.8666 6.3999ZM30.9333 18.5732C30.9333 19.2466 30.7533 19.8999 30.4133 20.4799L25.6666 29.0799C25.6266 29.1599 25.6 29.2466 25.6 29.3399V30.9399H19.2V27.0599C19.2066 24.6066 20.5266 22.3399 22.6666 21.1266C22.7133 21.0999 22.76 21.0599 22.8 21.0199L26.54 16.8599C26.9 16.4599 27.5133 16.4332 27.9133 16.7932C28.3133 17.1532 28.34 17.7666 27.98 18.1666L23.6066 22.9732L24.3933 23.6932L28.76 18.8866C29.4466 18.1266 29.4666 16.9799 28.7933 16.1999V8.53324C28.7933 7.94657 29.2733 7.46657 29.86 7.46657C30.4466 7.46657 30.9266 7.94657 30.9266 8.53324L30.9333 18.5732Z" fill="#0C9CD8"/>
<path d="M22.4 13.3333H21.3333C19.42 13.3333 17.6267 14.2733 16.5333 15.84V12.2667H17.0667C20.3067 12.26 22.9267 9.64 22.9333 6.4C22.9333 6.10667 22.6933 5.86667 22.4 5.86667H21.3333C19.42 5.86667 17.6267 6.80667 16.5333 8.37333V4.8H17.0667C19.42 4.8 21.3333 2.88667 21.3333 0.533333C21.3333 0.24 21.0933 0 20.8 0H19.7333C18.18 0 16.7533 0.846667 16 2.20667C15.2467 0.846667 13.82 0 12.2667 0H11.2C10.9067 0 10.6667 0.24 10.6667 0.533333C10.6667 2.88667 12.58 4.8 14.9333 4.8H15.4667V8.37333C14.3733 6.80667 12.58 5.86667 10.6667 5.86667H9.59998C9.30665 5.86667 9.06665 6.10667 9.06665 6.4C9.07332 9.64 11.6933 12.26 14.9333 12.2667H15.4667V15.84C14.3733 14.2733 12.58 13.3333 10.6667 13.3333H9.59998C9.30665 13.3333 9.06665 13.5733 9.06665 13.8667C9.07332 17.1067 11.6933 19.7267 14.9333 19.7333H15.4667V24H16.5333V19.7333H17.0667C20.3067 19.7267 22.9267 17.1067 22.9333 13.8667C22.9333 13.5733 22.6933 13.3333 22.4 13.3333ZM21.3333 6.93333H21.84C21.5667 9.36 19.5133 11.2 17.0667 11.2H16.56C16.84 8.77333 18.8867 6.93333 21.3333 6.93333ZM19.7333 1.06667H20.22C19.96 2.60667 18.6267 3.73333 17.0667 3.73333H16.58C16.84 2.19333 18.1733 1.06667 19.7333 1.06667ZM14.9333 3.73333C13.3733 3.73333 12.04 2.60667 11.78 1.06667H12.2667C13.8267 1.06667 15.16 2.19333 15.42 3.73333H14.9333ZM14.9333 11.2C12.4867 11.2 10.44 9.36 10.16 6.93333H10.6667C13.1133 6.93333 15.16 8.77333 15.44 11.2H14.9333ZM14.9333 18.6667C12.4867 18.6667 10.44 16.8267 10.16 14.4H10.6667C13.1133 14.4 15.16 16.24 15.44 18.6667H14.9333ZM17.0667 18.6667H16.56C16.8333 16.24 18.8867 14.4 21.3333 14.4H21.84C21.56 16.8267 19.5133 18.6667 17.0667 18.6667Z" fill="#0C9CD8"/>
</svg>
