<svg width="32" height="32" viewBox="0 0 32 32" fill="none" xmlns="http://www.w3.org/2000/svg">
<path d="M11.2 1.6001H9.06665V2.66676H11.2V1.6001Z" fill="#0C9CD8"/>
<path d="M13.3333 1.6001H12.2666V2.66676H13.3333V1.6001Z" fill="#0C9CD8"/>
<path d="M31.4667 19.2H25.0667C25.0667 18.3133 24.3533 17.6 23.4667 17.6C22.58 17.6 21.8667 18.3133 21.8667 19.2H21.3333V5.33333H24.5333C24.8267 5.33333 25.0667 5.09333 25.0667 4.8V0.533333C25.0667 0.24 24.8267 0 24.5333 0H7.46667C7.17333 0 6.93333 0.24 6.93333 0.533333V4.8C6.93333 5.09333 7.17333 5.33333 7.46667 5.33333H10.6667V8H10.1333C10.1333 7.11333 9.42 6.4 8.53333 6.4C7.64667 6.4 6.93333 7.11333 6.93333 8H0.533333C0.24 8 0 8.24 0 8.53333V11.7333C0 12.0267 0.24 12.2667 0.533333 12.2667H6.93333C6.93333 13.1533 7.64667 13.8667 8.53333 13.8667C9.42 13.8667 10.1333 13.1533 10.1333 12.2667H10.6667V26.6667C10.6667 29.6133 13.0533 32 16 32C18.9467 32 21.3333 29.6133 21.3333 26.6667V23.4667H21.8667C21.8667 24.3533 22.58 25.0667 23.4667 25.0667C24.3533 25.0667 25.0667 24.3533 25.0667 23.4667H31.4667C31.76 23.4667 32 23.2267 32 22.9333V19.7333C32 19.44 31.76 19.2 31.4667 19.2ZM6.93333 11.2H1.06667V9.06667H6.93333V11.2ZM9.06667 12.2667C9.06667 12.56 8.82667 12.8 8.53333 12.8C8.24 12.8 8 12.56 8 12.2667V8C8 7.70667 8.24 7.46667 8.53333 7.46667C8.82667 7.46667 9.06667 7.70667 9.06667 8V12.2667ZM10.6667 11.2H10.1333V9.06667H10.6667V11.2ZM20.2667 26.6667C20.2667 29.02 18.3533 30.9333 16 30.9333C13.6467 30.9333 11.7333 29.02 11.7333 26.6667V5.33333H20.2667V26.6667ZM8 4.26667V1.06667H24V4.26667H8ZM21.8667 22.4H21.3333V20.2667H21.8667V22.4ZM24 23.4667C24 23.76 23.76 24 23.4667 24C23.1733 24 22.9333 23.76 22.9333 23.4667V19.2C22.9333 18.9067 23.1733 18.6667 23.4667 18.6667C23.76 18.6667 24 18.9067 24 19.2V23.4667ZM30.9333 22.4H25.0667V20.2667H30.9333V22.4Z" fill="#0C9CD8"/>
<path d="M15.9999 18.6666C17.4733 18.6666 18.6666 17.4733 18.6666 16C18.6666 14.66 16.7533 12.78 16.3666 12.4133C16.1599 12.22 15.8399 12.22 15.6333 12.4133C15.2466 12.78 13.3333 14.66 13.3333 16C13.3333 17.4733 14.5266 18.6666 15.9999 18.6666ZM15.9999 13.5533C16.7533 14.34 17.5999 15.44 17.5999 16C17.5999 16.8866 16.8866 17.6 15.9999 17.6C15.1133 17.6 14.3999 16.8866 14.3999 16C14.3999 15.44 15.2466 14.3466 15.9999 13.5533Z" fill="#0C9CD8"/>
<path d="M16.6867 20.1133L17.3734 20.7999H13.8667V21.8666H17.38L16.6934 22.5533L17.4467 23.3066L19.0467 21.7066L19.04 21.6999C19.2467 21.4999 19.26 21.1733 19.06 20.9666C19.0534 20.9599 19.0467 20.9533 19.0467 20.9533L17.4467 19.3533L16.6867 20.1133Z" fill="#0C9CD8"/>
</svg>
