<svg width="32" height="32" viewBox="0 0 32 32" fill="none" xmlns="http://www.w3.org/2000/svg">
<path d="M18.8581 4.70967C18.4839 4.33548 17.9871 4.12903 17.4581 4.12903C16.3677 4.12903 15.4839 5.0129 15.4839 6.10322C15.4839 6.63225 15.6903 7.12903 16.0645 7.50322L16.3032 7.74193L1.64516 22.4C0.587097 23.4581 0 24.871 0 26.3742C0 29.4774 2.52258 32 5.62581 32C7.12903 32 8.54193 31.4129 9.60645 30.3548L24.2581 15.6968L24.4968 15.9355C24.871 16.3097 25.3677 16.5161 25.8968 16.5161C26.9871 16.5161 27.871 15.6323 27.871 14.5419C27.871 14.0129 27.6645 13.5161 27.2903 13.1419L18.8581 4.70967ZM8.87097 29.6258C8.00645 30.4903 6.85161 30.9677 5.62581 30.9677C3.09032 30.9677 1.03226 28.9097 1.03226 26.3742C1.03226 25.1484 1.50968 23.9935 2.37419 23.129L4.85806 20.6452H17.8516L8.87097 29.6258ZM25.8968 15.4839C25.6516 15.4839 25.4065 15.3806 25.2323 15.2064L24.2645 14.2387L18.8839 19.6129H5.89032L7.74194 17.7613L8.92258 18.9419L9.65161 18.2129L8.47097 17.0323L9.29032 16.2129L11.5032 18.4258L12.2323 17.6968L10.0194 15.4839L10.8387 14.6645L12.0194 15.8452L12.7484 15.1161L11.5677 13.9355L12.3871 13.1161L14.6 15.329L15.329 14.6L13.1161 12.3871L13.9355 11.5677L15.1161 12.7484L15.8452 12.0194L14.6645 10.8387L15.4839 10.0194L17.6968 12.2323L18.4258 11.5032L16.2129 9.29032L17.0323 8.47096L22.3419 13.7806L23.071 13.0516L16.7935 6.77419C16.6129 6.59354 16.5161 6.36129 16.5161 6.10967C16.5161 5.58709 16.9419 5.16774 17.4581 5.16774C17.7032 5.16774 17.9484 5.27096 18.1226 5.44516L26.5613 13.871C26.7419 14.0516 26.8387 14.2839 26.8387 14.5355C26.8387 15.0581 26.4129 15.4839 25.8968 15.4839Z" fill="#0C9CD8"/>
<path d="M29.9354 5.67737C28.7999 5.67737 27.8708 6.6064 27.8708 7.74188C27.8708 8.87737 28.7999 9.8064 29.9354 9.8064C31.0708 9.8064 31.9999 8.87737 31.9999 7.74188C31.9999 6.6064 31.0708 5.67737 29.9354 5.67737ZM29.9354 8.77414C29.3676 8.77414 28.9031 8.30963 28.9031 7.74188C28.9031 7.17414 29.3676 6.70963 29.9354 6.70963C30.5031 6.70963 30.9676 7.17414 30.9676 7.74188C30.9676 8.30963 30.5031 8.77414 29.9354 8.77414Z" fill="#0C9CD8"/>
<path d="M22.1937 4.64511C23.0453 4.64511 23.742 3.94834 23.742 3.09673C23.742 2.24511 23.0453 1.54834 22.1937 1.54834C21.342 1.54834 20.6453 2.24511 20.6453 3.09673C20.6453 3.94834 21.342 4.64511 22.1937 4.64511ZM22.1937 2.5806C22.4775 2.5806 22.7098 2.81286 22.7098 3.09673C22.7098 3.3806 22.4775 3.61286 22.1937 3.61286C21.9098 3.61286 21.6775 3.3806 21.6775 3.09673C21.6775 2.81286 21.9098 2.5806 22.1937 2.5806Z" fill="#0C9CD8"/>
<path d="M28.387 3.09677C29.2386 3.09677 29.9354 2.4 29.9354 1.54839C29.9354 0.696774 29.2386 0 28.387 0C27.5354 0 26.8386 0.696774 26.8386 1.54839C26.8386 2.4 27.5354 3.09677 28.387 3.09677ZM28.387 1.03226C28.6709 1.03226 28.9031 1.26452 28.9031 1.54839C28.9031 1.83226 28.6709 2.06452 28.387 2.06452C28.1031 2.06452 27.8709 1.83226 27.8709 1.54839C27.8709 1.26452 28.1031 1.03226 28.387 1.03226Z" fill="#0C9CD8"/>
<path d="M6.70957 23.742C6.70957 22.8904 6.01279 22.1936 5.16118 22.1936C4.30957 22.1936 3.61279 22.8904 3.61279 23.742C3.61279 24.5936 4.30957 25.2904 5.16118 25.2904C6.01279 25.2904 6.70957 24.5936 6.70957 23.742ZM4.64505 23.742C4.64505 23.4581 4.87731 23.2259 5.16118 23.2259C5.44505 23.2259 5.67731 23.4581 5.67731 23.742C5.67731 24.0259 5.44505 24.2581 5.16118 24.2581C4.87731 24.2581 4.64505 24.0259 4.64505 23.742Z" fill="#0C9CD8"/>
<path d="M10.8387 22.1936C9.98706 22.1936 9.29028 22.8904 9.29028 23.742C9.29028 24.5936 9.98706 25.2904 10.8387 25.2904C11.6903 25.2904 12.3871 24.5936 12.3871 23.742C12.3871 22.8904 11.6903 22.1936 10.8387 22.1936ZM10.8387 24.2581C10.5548 24.2581 10.3225 24.0259 10.3225 23.742C10.3225 23.4581 10.5548 23.2259 10.8387 23.2259C11.1225 23.2259 11.3548 23.4581 11.3548 23.742C11.3548 24.0259 11.1225 24.2581 10.8387 24.2581Z" fill="#0C9CD8"/>
<path d="M6.19365 26.8387C5.34204 26.8387 4.64526 27.5355 4.64526 28.3871C4.64526 29.2387 5.34204 29.9355 6.19365 29.9355C7.04526 29.9355 7.74204 29.2387 7.74204 28.3871C7.74204 27.5355 7.04526 26.8387 6.19365 26.8387ZM6.19365 28.9033C5.90978 28.9033 5.67752 28.671 5.67752 28.3871C5.67752 28.1033 5.90978 27.871 6.19365 27.871C6.47752 27.871 6.70978 28.1033 6.70978 28.3871C6.70978 28.671 6.47752 28.9033 6.19365 28.9033Z" fill="#0C9CD8"/>
</svg>
