<svg width="36" height="32" viewBox="0 0 36 32" fill="none" xmlns="http://www.w3.org/2000/svg">
<path d="M28.5947 6.90648C28.4412 6.71463 28.1726 6.63789 27.9041 6.753L26.9065 7.13669L23.8369 0.345324C23.7218 0.115108 23.53 0 23.2997 0H13.3237C13.1319 0 12.9784 0.0767386 12.8633 0.230216L7.223 6.98322C7.10789 7.09832 7.06952 7.29017 7.10789 7.44365C7.14626 7.59712 7.223 7.7506 7.33811 7.86571L12.9784 12.048C13.247 12.2398 13.6307 12.2014 13.8225 11.9329L17.506 6.94485L19.271 10.0911L18.1583 10.6667C17.928 10.7818 17.8129 11.012 17.8513 11.2422C17.8897 11.4724 18.0431 11.7026 18.3117 11.741L24.6043 13.2758C24.6427 13.2758 24.681 13.2758 24.7578 13.2758C24.9496 13.2758 25.1415 13.1607 25.2566 13.0072L28.6331 7.59712C28.7866 7.36691 28.7482 7.09832 28.5947 6.90648ZM13.2086 10.705L8.56593 7.2518L13.6307 1.18945H14.4364L16.9304 5.83214L13.2086 10.705ZM24.4125 12.048L20.1535 11.012L20.3837 10.8969C20.5372 10.8201 20.6523 10.705 20.6906 10.5516C20.729 10.3981 20.729 10.2446 20.6523 10.0911L18.1199 5.56355L15.741 1.15108H22.8777L26.024 8.1343C26.1391 8.36451 26.4077 8.51799 26.6379 8.47962L24.4125 12.048Z" fill="#0C9CD8"/>
<path d="M15.3189 22.4077L9.10312 22.1392L10.7146 18.9161L11.789 19.53C12.0192 19.6452 12.2878 19.6452 12.4796 19.4533C12.6715 19.2998 12.7482 19.0312 12.6331 18.801L10.3693 12.7387C10.2926 12.5085 10.0624 12.355 9.79377 12.355L3.38609 12.5852C3.11751 12.5852 2.92566 12.777 2.84892 13.0073C2.77218 13.2375 2.88729 13.5061 3.07914 13.6595L3.96163 14.2734L0.086331 20.6428C-0.028777 20.8346 -0.028777 21.1032 0.086331 21.295L4.38369 27.626L6.03358 30.12C6.14868 30.2735 6.34053 30.3886 6.53238 30.3886H15.2806C15.6259 30.3886 15.8945 30.12 15.8945 29.7746V23.0217C15.8945 22.7147 15.6259 22.4461 15.3189 22.4077ZM5.30456 26.8586L1.31415 20.9497L5.34293 14.4269C5.4964 14.1967 5.45804 13.9281 5.26619 13.7363L9.44844 13.5444L10.9832 17.6883L10.753 17.5732C10.5995 17.4965 10.446 17.4581 10.2926 17.5348C10.1391 17.5732 10.024 17.6883 9.94724 17.8418L7.64509 22.4461L5.30456 26.8586ZM14.6667 29.1991H6.83933L6.07194 28.0097L8.52758 23.3286L14.6667 23.5972V29.1991Z" fill="#0C9CD8"/>
<path d="M35.6546 20.4124L31.8177 12.5084C31.7409 12.3549 31.6258 12.2398 31.4724 12.2014C31.3189 12.163 31.1654 12.163 31.0119 12.2782L24.8728 15.693C24.6043 15.8465 24.4891 16.2302 24.6426 16.4988L27.6354 21.9088L24.0287 22.2158L23.9903 20.988C23.9903 20.7194 23.7985 20.5276 23.5683 20.4508C23.3381 20.3741 23.0695 20.4508 22.916 20.6427L18.9256 25.7458C18.7721 25.9376 18.7721 26.2446 18.8872 26.4364L22.4556 31.7314C22.5707 31.8849 22.7625 32 22.9544 32C22.9927 32 23.0695 32 23.1079 31.9616C23.3381 31.8849 23.5299 31.6547 23.5299 31.4244L23.5683 30.3501H31.0119C31.2421 30.3501 31.4724 30.1966 31.5491 30.0048L35.6546 20.9112C35.7314 20.7578 35.7314 20.5659 35.6546 20.4124ZM30.705 29.199H23.0695C22.8009 29.199 22.5707 29.3909 22.4939 29.6211L20.1534 26.1295L22.8776 22.6379V22.9065C22.8776 23.0599 22.9544 23.2134 23.0695 23.3285C23.1846 23.4436 23.3381 23.482 23.5299 23.482L28.6714 23.0216L33.6594 22.6762L30.705 29.199ZM34.1582 21.41L28.9016 21.7937L25.9472 16.422L31.0119 13.5827L34.5035 20.681L34.1582 21.41Z" fill="#0C9CD8"/>
</svg>
