<svg width="93" height="90" viewBox="0 0 93 90" fill="none" xmlns="http://www.w3.org/2000/svg">
<path d="M33.9423 30.8214C33.9423 30.8214 30.7677 25.5304 29.5467 23.6988C28.3664 21.908 27.7151 18.2857 27.8779 16.4541C28.0407 14.6226 26.9418 11.4887 27.8779 11.7736C28.8141 12.0585 35.1633 16.7798 36.9542 19.9137C38.745 23.0883 40.2509 25.042 40.2509 25.042C40.2509 25.042 45.3792 26.9956 47.0479 31.0656C48.7166 35.1357 48.8794 35.4613 48.8794 35.4613C48.8794 35.4613 44.5245 35.5834 42.8557 34.9729C41.187 34.3624 39.559 32.246 37.5647 31.7982C35.611 31.4319 33.9423 30.8214 33.9423 30.8214Z" fill="#00684B"/>
<path d="M27.5929 10.7561C27.5929 10.7561 28.2848 2.57527 29.7094 1.11005C31.9886 -1.25058 32.2328 0.703047 32.3956 1.92406C32.5584 3.14508 32.5584 4.7324 32.5584 4.7324C32.5584 4.7324 34.6341 2.49387 35.4074 3.10438C36.1807 3.71489 35.8958 7.01163 35.8958 7.01163C35.8958 7.01163 39.0705 5.50571 39.6403 6.11622C40.2508 6.72673 39.3554 9.41296 39.3554 9.41296C39.3554 9.41296 41.9195 8.47685 42.53 9.86067C43.1405 11.2445 41.7974 13.0353 41.7974 13.0353C41.7974 13.0353 44.3615 13.076 44.8092 14.4191C45.257 15.7622 43.4254 16.5356 43.4254 16.5356C43.4254 16.5356 44.8092 17.9194 44.9313 18.9369C45.0942 19.9951 43.8731 20.28 43.8731 20.28C43.8731 20.28 44.9313 21.2161 45.0534 22.2336C45.2162 23.2918 44.3208 23.4139 44.3208 23.4139C44.3208 23.4139 45.3791 24.3094 44.9313 25.6932C44.4836 27.077 44.4429 26.5886 43.2626 25.9781C42.0823 25.3676 40.088 24.1465 40.088 24.1465C40.088 24.1465 38.2972 21.0126 37.2389 19.3439C36.1807 17.6752 32.5991 14.3784 31.3374 13.4423C29.5465 12.0992 27.5929 10.7561 27.5929 10.7561Z" fill="#003A78"/>
<path d="M48.8794 37.0079C48.8794 37.0079 59.258 25.9781 62.7583 24.3094C66.2585 22.6813 67.4388 19.3439 68.6599 19.3439C69.8809 19.3439 73.666 21.0126 73.3404 24.4722C73.0555 27.9317 68.9448 31.554 68.2122 34.5659C67.4795 37.5777 67.4795 40.7524 64.7526 42.5839C62.0257 44.4154 57.7928 45.7585 55.0659 44.8631C52.3389 43.9677 48.5945 39.572 46.4781 40.1826C44.3616 40.7931 48.8794 37.0079 48.8794 37.0079Z" fill="#00684B"/>
<path d="M71.0611 19.2218C71.0611 19.2218 77.9802 9.98277 79.0791 7.86634C80.1374 5.79061 81.7654 5.0173 82.2538 6.23832C82.7422 7.41863 82.5794 8.96525 82.5794 8.96525C82.5794 8.96525 85.3063 7.62214 85.9168 8.35475C86.5273 9.08736 85.4691 11.8143 85.4691 11.8143C85.4691 11.8143 88.3182 10.9189 88.3182 11.9771C88.3182 13.0353 86.4866 16.0471 86.4866 16.0471C86.4866 16.0471 89.295 15.3552 89.295 16.2506C89.295 17.1868 86.7715 19.8323 86.7715 19.8323C86.7715 19.8323 88.7252 19.9544 88.4403 21.0126C88.1554 22.0708 85.4284 23.4139 85.4284 23.4139C85.4284 23.4139 87.0564 23.5767 87.0564 24.4722C87.0564 25.3676 84.6551 26.9956 84.6551 26.9956C84.6551 26.9956 86.2017 27.7282 85.7133 28.8271C85.2249 29.8853 83.8818 30.2109 83.8818 30.2109C83.8818 30.2109 84.4923 31.0656 84.1667 32.0017C83.8818 32.9379 80.8293 33.6705 80.8293 33.6705C80.8293 33.6705 81.277 34.4031 80.9921 35.2985C80.7072 36.2346 77.9802 36.3567 77.9802 36.3567C77.9802 36.3567 78.8756 38.758 78.5907 39.6534C78.3058 40.5489 75.4161 40.5489 75.4161 40.5489C75.4161 40.5489 75.9045 42.3804 75.1312 43.4386C74.3579 44.4968 72.852 44.0491 72.852 44.0491C72.852 44.0491 73.2997 45.2294 72.6892 46.0027C72.0787 46.776 71.3053 46.3283 71.3053 46.3283C71.3053 46.3283 70.7355 47.3865 69.6773 47.9564C68.6191 48.5669 67.7237 47.7936 67.7237 47.7936C67.7237 47.7936 68.0086 48.8518 67.276 49.4623C66.5434 50.0728 64.9968 49.4623 64.9968 49.4623C64.9968 49.4623 64.9968 50.9682 64.2642 51.2531C63.5315 51.538 61.5372 50.6426 61.5372 50.6426C61.5372 50.6426 61.8628 52.4741 60.9267 52.759C59.9906 53.0439 58.037 51.7008 57.4265 50.6426C56.816 49.5844 56.3683 45.6364 56.3683 45.6364C56.3683 45.6364 59.3801 45.962 62.2698 44.2933C65.1189 42.6246 66.9504 42.5025 67.8458 38.3917C68.7412 34.3217 70.4506 31.4319 71.9159 29.3155C73.4218 27.2398 75.5382 22.6813 73.259 21.2975C71.8752 20.5649 71.0611 19.2218 71.0611 19.2218Z" fill="#003A78"/>
<path d="M33.4946 50.1542C33.4946 50.1542 36.9948 54.5498 40.2916 55.6081C43.629 56.6663 47.699 57.5617 47.699 57.5617C47.699 57.5617 48.4317 63.911 49.0422 65.8646C49.6527 67.8182 49.6527 67.9403 49.6527 67.9403C49.6527 67.9403 55.8799 61.4689 56.002 56.3407C56.1648 51.2124 56.002 48.5262 55.8392 47.3051C55.6764 46.0841 55.6764 46.0841 55.6764 46.0841C55.6764 46.0841 53.5599 45.2294 51.6063 43.6828C49.6527 42.1769 48.3096 40.5082 45.5826 41.4036C42.8557 42.299 39.681 41.8513 39.681 41.8513C39.681 41.8513 36.3843 46.2469 34.5528 46.369C34.5528 46.369 36.7913 47.1016 36.1808 47.9971C35.611 48.9739 33.4946 50.1542 33.4946 50.1542Z" fill="#F59D21"/>
<path d="M55.2287 61.4689C55.2287 61.4689 55.8392 68.8764 54.781 71.4406C54.781 71.4406 52.8273 71.2778 52.6645 70.5045C52.5017 69.7718 51.3214 70.5045 50.426 69.8939C49.4899 69.2834 47.8619 68.6729 47.577 67.6147C47.2921 66.5565 45.9082 66.8821 45.6233 65.8239C45.3384 64.7657 44.85 64.6029 44.2395 64.1552C43.629 63.7075 43.9546 62.7714 45.2977 61.591C46.6409 60.4107 47.577 59.4746 47.577 59.4746C47.577 59.4746 48.3096 66.76 49.5306 68.2659C49.5306 68.2659 52.4203 65.9867 53.6006 64.0331C54.781 62.0794 55.2287 61.4689 55.2287 61.4689Z" fill="#00684B"/>
<path d="M43.3034 35.8276C43.3034 35.8276 38.6229 32.4902 36.0588 32.0425C33.4946 31.5947 30.9305 30.5365 28.0407 34.1589C25.1917 37.7812 24.5812 42.7467 23.6858 44.741C23.6858 44.741 26.0871 43.3979 27.9186 41.1187C29.7502 38.8394 32.3143 37.0486 35.3261 37.1707C38.2973 37.3335 43.3034 35.8276 43.3034 35.8276Z" fill="#00684B"/>
<path fill-rule="evenodd" clip-rule="evenodd" d="M43.3035 36.4381C43.3035 36.4381 38.9485 37.6184 37.2798 37.6184C35.6111 37.6184 33.047 37.0486 31.0933 38.6766C29.1397 40.3047 25.4767 44.2526 24.4185 44.8631C24.4185 44.8631 28.3664 41.8513 29.5467 41.1187C30.727 40.3454 31.0526 40.671 31.6632 41.1187C31.6632 41.1187 33.454 39.8977 35.5704 39.7348C37.6868 39.572 39.3555 39.3278 40.6987 38.3917C42.0825 37.4556 43.3035 36.4381 43.3035 36.4381Z" fill="#003A78"/>
<path d="M38.9079 39.7348C38.9079 39.7348 35.3262 40.1826 34.3901 40.4675C33.454 40.7524 32.1109 41.8513 32.1109 41.8513C32.1109 41.8513 32.7214 42.9095 31.3783 43.52C31.3783 43.52 34.5122 43.8049 35.896 42.5839C37.2798 41.4036 38.9079 39.7348 38.9079 39.7348Z" fill="#F59D21"/>
<path fill-rule="evenodd" clip-rule="evenodd" d="M38.745 42.0141C38.745 42.0141 35.6111 43.3979 33.6168 43.8456C31.6631 44.2933 31.0526 43.8456 31.0526 43.8456C31.0526 43.8456 29.2618 44.0084 28.3257 45.0259C27.3896 46.0841 27.7152 47.1016 26.4942 48.3227C26.4942 48.3227 27.6745 46.9795 29.6688 46.6946C31.6224 46.4097 34.3494 46.4097 36.1402 44.8631C38.0124 43.3572 38.745 42.0141 38.745 42.0141Z" fill="#00684B"/>
<path d="M24.1334 45.1887C24.1334 45.1887 11.5977 57.2768 11.9233 57.7245C12.2082 58.1722 15.5456 55.4452 18.3946 53.6544C21.2437 51.8636 27.1453 47.3051 27.1453 47.3051L27.7558 45.1887C27.7558 45.1887 26.5347 46.1248 25.4765 46.2469C24.4183 46.4097 24.1334 45.1887 24.1334 45.1887Z" fill="black"/>
<path d="M33.3318 49.8693C33.3318 49.8693 31.8258 48.9739 30.035 48.9739C28.2442 48.9739 25.965 48.8111 25.965 48.8111C25.965 48.8111 26.9825 48.3634 27.7558 47.9157C28.5291 47.4679 30.3606 47.0202 31.7037 47.0202C33.0469 47.0202 34.2679 46.7353 34.2679 46.7353C34.2679 46.7353 35.4482 47.0202 35.611 47.6307C35.8959 48.6483 33.3318 49.8693 33.3318 49.8693Z" fill="#FCC14E"/>
<path fill-rule="evenodd" clip-rule="evenodd" d="M49.0423 36.1125C49.0423 36.1125 45.135 36.1125 44.5245 35.9497C43.914 35.7869 43.914 36.2346 43.3035 37.0079C42.693 37.7405 41.3499 38.6766 40.2917 39.2871C39.2335 39.8977 38.7858 40.671 38.0124 41.4036C37.2798 42.1362 37.117 42.1362 37.117 42.1362C37.117 42.1362 39.3963 41.078 39.9661 41.078C40.5766 41.078 41.3499 41.078 42.8151 40.9152C44.321 40.7524 44.6059 40.3047 45.9898 38.9615C47.3736 37.6184 49.0423 36.1125 49.0423 36.1125Z" fill="#FCC14E"/>
<path d="M28.2035 42.299C28.2035 42.299 27.4302 43.3572 27.7151 43.8049C28 44.2526 29.8316 43.8049 29.8316 43.8049C29.8316 43.8049 28.7733 43.6421 28.6512 43.3165C28.5291 43.0316 28.2035 42.299 28.2035 42.299Z" fill="black"/>
<path d="M30.2792 41.3222C29.7094 41.3222 29.1396 41.6071 28.9768 41.9327C28.7733 42.299 28.814 42.706 29.0175 43.0316C29.221 43.3572 29.8315 43.6421 30.4013 43.3979C30.8083 43.2351 31.3374 42.5025 31.3781 41.9327C31.4595 41.3629 31.4595 41.3629 31.4595 41.3629L30.2792 41.3222Z" fill="black"/>
<path d="M29.7095 41.8513C29.7095 41.8513 29.7502 42.5025 29.913 42.7467C30.1165 42.9909 30.2793 43.0723 30.2793 43.0723C30.2793 43.0723 29.7095 43.113 29.506 42.9095C29.3025 42.706 29.2211 42.3804 29.3025 42.2176C29.4653 42.0955 29.7095 41.8513 29.7095 41.8513Z" fill="white"/>
<path fill-rule="evenodd" clip-rule="evenodd" d="M28.1628 44.3747C28.1628 44.3747 27.593 44.5782 27.3488 44.2933C27.1453 44.0084 27.5116 42.8688 27.5116 42.8688C27.5116 42.8688 25.3544 44.334 25.0288 45.148C24.7032 45.962 25.3137 45.8806 25.3137 45.8806C25.3137 45.8806 25.7207 45.962 26.4534 45.5957C27.1453 45.2294 28.1628 44.3747 28.1628 44.3747Z" fill="#003A78"/>
<path d="M10.743 59.556C10.743 59.556 2.92853 68.4287 0.608602 76.4874C-1.26362 83.0402 1.21911 90 7.56839 90C16.319 90 17.9877 80.9645 13.0223 75.6327C7.12069 69.2834 10.743 59.556 10.743 59.556Z" fill="#0098D9"/>
<path d="M12.6966 78.2375C12.6966 78.2375 15.9933 82.796 12.7373 86.8661C11.3535 88.5755 8.46375 88.2906 8.46375 88.2906C8.46375 88.2906 10.9058 87.8022 12.2489 84.4647C13.1443 82.2262 12.6966 78.2375 12.6966 78.2375Z" fill="white"/>
<path d="M24.0928 81.4936C24.0928 79.3772 24.0521 77.9119 23.93 76.2025C24.337 76.2432 24.8661 76.2839 25.4766 76.2839C26.3313 76.2839 27.2674 76.2025 28.9362 76.2025C33.2911 76.2025 36.2622 77.5863 36.2622 82.389C36.2622 86.5811 33.2504 89.3488 29.6688 89.3488C27.7558 89.3488 26.4534 89.2674 25.4766 89.2674C24.8661 89.2674 24.337 89.3081 23.93 89.3488C24.0521 87.6801 24.0928 86.2148 24.0928 84.0577V81.4936ZM26.9011 84.5054C26.9011 85.5229 26.9011 87.8429 26.9011 88.2092C27.2674 88.2092 27.7965 88.2499 28.5699 88.2499C31.4189 88.2499 33.2504 86.2962 33.2504 82.3483C33.2504 79.2143 31.5003 77.3014 28.8955 77.3014C28 77.3014 27.5116 77.3421 26.9011 77.3828C26.9011 77.7491 26.9011 80.0691 26.9011 81.0866V84.5054Z" fill="#575756"/>
<path d="M42.1638 79.9063C45.0943 79.9063 46.8444 81.6971 46.8444 84.5868C46.8444 87.6801 44.9315 89.6337 42.1638 89.6337C39.8846 89.6337 37.4833 88.372 37.4833 84.9938C37.524 81.575 39.7625 79.9063 42.1638 79.9063ZM42.2045 80.761C41.0242 80.761 40.3323 82.1448 40.3323 84.9938C40.3323 87.1102 40.78 88.7383 42.2045 88.7383C43.3849 88.7383 44.0361 87.2324 44.0361 84.2612C44.0361 82.0634 43.4663 80.761 42.2045 80.761Z" fill="#575756"/>
<path d="M54.1297 87.9243C53.3971 88.9418 52.4203 89.593 51.1993 89.593C49.2864 89.593 48.2281 88.5348 48.2281 86.0927C48.2281 84.7903 48.3095 83.8949 48.3095 82.8774C48.3095 82.0634 48.2688 81.0866 48.2281 80.1098C48.5538 80.1505 49.1236 80.1912 49.6527 80.1912C50.2225 80.1912 50.7516 80.1505 51.0772 80.1098C50.9144 81.4936 50.8737 83.3251 50.8737 85.5636C50.8737 87.151 51.4435 87.8836 52.4203 87.8836C53.5599 87.8836 54.089 86.8254 54.089 85.0752V84.3019C54.089 82.7553 54.0483 81.4122 53.9262 80.0691C54.2518 80.1098 54.7809 80.1505 55.3507 80.1505C55.9612 80.1505 56.4497 80.1098 56.7753 80.0691C56.6532 81.4122 56.6125 82.7553 56.6125 84.3019V85.0752C56.6125 86.6219 56.6532 87.965 56.7753 89.3081C56.3276 89.2674 55.8798 89.2267 55.4321 89.2267C54.9844 89.2267 54.5367 89.2674 54.0483 89.3081L54.1297 87.9243Z" fill="#575756"/>
<path d="M58.851 81.5343C58.851 79.0516 58.8103 77.0979 58.6882 74.9408C59.0138 74.9815 59.5836 75.0222 60.1127 75.0222C60.6418 75.0222 61.2116 74.9815 61.5372 74.9408C61.4558 77.0979 61.3744 79.0516 61.3744 81.5343V82.7553C61.3744 85.238 61.4151 87.1917 61.5372 89.3488C61.2116 89.3081 60.6418 89.2674 60.1127 89.2674C59.5836 89.2674 59.0138 89.3081 58.6882 89.3488C58.7696 87.1917 58.851 85.238 58.851 82.7553V81.5343Z" fill="#575756"/>
<path d="M68.2528 80.2319C68.2121 80.4354 68.2121 80.5575 68.2121 80.761C68.2121 80.9238 68.2121 81.0866 68.2528 81.2494L66.5841 81.2087C66.5027 82.3483 66.462 84.424 66.462 85.4415C66.462 88.0871 66.6655 88.5348 67.5202 88.5348C68.0086 88.5348 68.1714 88.4941 68.4156 88.3313V89.1046C67.9272 89.3895 67.0725 89.593 66.3399 89.593C64.7526 89.593 63.9386 88.5755 63.9386 86.6625C63.9386 85.1973 64.0607 82.796 64.0607 81.2087H62.7176C62.7583 81.0459 62.7583 80.8831 62.7583 80.7203C62.7583 80.5575 62.7583 80.3947 62.7176 80.1912L64.0607 80.2319C64.0607 79.4179 64.0607 78.848 63.9793 77.8712C64.8747 77.5049 65.7294 77.0979 66.5841 76.6909L66.7876 76.813C66.7062 77.627 66.6248 79.0516 66.6248 80.1912L68.2528 80.2319Z" fill="#575756"/>
<path d="M73.3812 79.9063C76.3116 79.9063 78.0617 81.6971 78.0617 84.5868C78.0617 87.6801 76.1488 89.6337 73.3812 89.6337C71.102 89.6337 68.7006 88.372 68.7006 84.9938C68.7006 81.575 70.9799 79.9063 73.3812 79.9063ZM73.4219 80.761C72.2416 80.761 71.5497 82.1448 71.5497 84.9938C71.5497 87.1102 71.9974 88.7383 73.4219 88.7383C74.6022 88.7383 75.2534 87.2324 75.2534 84.2612C75.2127 82.0634 74.6836 80.761 73.4219 80.761Z" fill="#575756"/>
<path d="M82.0502 81.575C82.7828 80.5575 83.7596 79.9063 84.9807 79.9063C86.8936 79.9063 87.9518 80.9645 87.9518 83.4065C87.9518 84.7089 87.8704 85.6043 87.8704 86.6218C87.8704 87.4359 87.9111 88.4127 87.9518 89.3895C87.6262 89.3488 87.0564 89.3081 86.5273 89.3081C85.9575 89.3081 85.4284 89.3488 85.1028 89.3895C85.2656 88.0057 85.3063 86.1741 85.3063 83.9356C85.3063 82.3483 84.7365 81.6157 83.7596 81.6157C82.62 81.6157 82.0909 82.6739 82.0909 84.424V85.1973C82.0909 86.7439 82.1316 88.0871 82.2537 89.4302C81.9281 89.3895 81.399 89.3488 80.8292 89.3488C80.2187 89.3488 79.7303 89.3895 79.4047 89.4302C79.5268 88.0871 79.5675 86.7439 79.5675 85.1973V84.424C79.5675 82.8774 79.5268 81.5343 79.4047 80.1912C79.8524 80.2319 80.3001 80.2726 80.7478 80.2726C81.1955 80.2726 81.6432 80.2319 82.1316 80.1912L82.0502 81.575Z" fill="#575756"/>
<path d="M90.6788 86.4997C91.4521 86.4997 92.1033 87.1102 92.1033 87.9243C92.1033 88.6976 91.4928 89.3488 90.6788 89.3488C89.9055 89.3488 89.2543 88.7383 89.2543 87.9243C89.295 87.1509 89.9055 86.4997 90.6788 86.4997ZM90.6788 86.6625C89.9869 86.6625 89.4171 87.2323 89.4171 87.9243C89.4171 88.6162 89.9869 89.186 90.6788 89.186C91.3707 89.186 91.9405 88.6162 91.9405 87.9243C91.9405 87.2323 91.3707 86.6625 90.6788 86.6625ZM91.3707 88.6976C91.2893 88.6976 91.2486 88.6976 91.1672 88.6976C91.0858 88.6976 91.0451 88.6976 90.9637 88.6976C90.5567 87.965 90.5567 87.965 90.516 87.965C90.516 87.965 90.516 87.965 90.516 88.0464C90.516 88.2906 90.516 88.6569 90.5567 88.7383C90.516 88.7383 90.4346 88.7383 90.3532 88.7383C90.3125 88.7383 90.2311 88.7383 90.1497 88.7383C90.1497 88.6976 90.1904 88.4534 90.1904 87.8429C90.1904 87.3544 90.1904 87.1916 90.1497 87.1102C90.2718 87.1102 90.3532 87.1102 90.4753 87.1102C90.5567 87.1102 90.6381 87.1102 90.8009 87.1102C91.0858 87.1102 91.2486 87.2731 91.2486 87.5173C91.2486 87.7615 91.0858 87.9243 90.8823 87.9243L91.3707 88.6976ZM90.6381 87.1916H90.516C90.516 87.4766 90.516 87.6394 90.516 87.8429C90.6381 87.8429 90.8823 87.8429 90.8823 87.4766C90.8823 87.3137 90.7602 87.1916 90.6381 87.1916Z" fill="#575756"/>
<path d="M87.8705 5.66851C88.6438 5.66851 89.2951 6.27902 89.2951 7.09303C89.2951 7.86634 88.6845 8.51755 87.8705 8.51755C87.0972 8.51755 86.446 7.90704 86.446 7.09303C86.4867 6.27902 87.0972 5.66851 87.8705 5.66851ZM87.8705 5.83131C87.1786 5.83131 86.6088 6.40112 86.6088 7.09303C86.6088 7.78494 87.1786 8.35475 87.8705 8.35475C88.5624 8.35475 89.1323 7.78494 89.1323 7.09303C89.1323 6.36042 88.5624 5.83131 87.8705 5.83131ZM88.5624 7.82564C88.481 7.82564 88.4403 7.82564 88.3589 7.82564C88.2775 7.82564 88.2368 7.82564 88.1554 7.82564C87.7484 7.09303 87.7484 7.09303 87.7077 7.09303C87.7077 7.09303 87.7077 7.09303 87.7077 7.17443C87.7077 7.41863 87.7077 7.78494 87.7484 7.86634C87.7077 7.86634 87.6263 7.86634 87.5449 7.86634C87.5042 7.86634 87.4228 7.86634 87.3414 7.86634C87.3414 7.82564 87.3821 7.58144 87.3821 6.97093C87.3821 6.48252 87.3821 6.31972 87.3414 6.23832C87.4635 6.23832 87.5449 6.23832 87.667 6.23832C87.7484 6.23832 87.8298 6.23832 87.9926 6.23832C88.2775 6.23832 88.4403 6.40112 88.4403 6.64532C88.4403 6.88953 88.2775 7.05233 88.074 7.05233L88.5624 7.82564ZM87.8298 6.36042H87.7077C87.7077 6.64532 87.7077 6.80812 87.7077 7.01163C87.8298 7.01163 88.074 7.01163 88.074 6.64532C88.074 6.44182 87.9519 6.36042 87.8298 6.36042Z" fill="#575756"/>
</svg>
