<svg width="114" height="35" viewBox="0 0 114 35" fill="none" xmlns="http://www.w3.org/2000/svg">
<g clip-path="url(#clip0)">
<path d="M10.0979 16.3332H0V26.2547L10.0979 16.3332Z" fill="#5B7E96"/>
<path d="M18.9976 34.9992V25.0758L8.89975 34.9992H18.9976Z" fill="#5B7E96"/>
<path d="M28.4969 34.9992V7.00001H0.000762939V13.9993H15.8317L0.000762939 29.5536V34.9992H5.54118L21.3721 19.4449V34.9992H28.4969Z" fill="#EA0029"/>
<path d="M44.2533 7.33172C44.4846 7.04668 44.582 7.00882 44.9685 7.00882H47.5794V19.6101H44.2726V11.8365H44.2533L41.5257 15.1622H39.6107C39.3206 15.1622 39.1846 15.1054 39.0305 14.915L36.5544 11.8365H36.5352V19.6101H33.2466V7.00882H36.0321C36.4185 7.00882 36.5159 7.04668 36.7472 7.33172L40.481 11.9122H40.5388L44.2533 7.33172ZM53.6381 7.00882H57.0615C57.2938 7.00882 57.3709 7.02775 57.4673 7.29385L62.5745 19.6101H59.286C59.0537 19.6101 58.9574 19.5713 58.86 19.3251L58.1641 17.5192H53.0376L52.4189 19.3251C52.3418 19.5713 52.2454 19.6101 52.0131 19.6101H48.8402L53.6381 7.00882ZM55.4751 10.2209C55.3402 10.9056 54.9527 12.0647 54.334 13.8128L53.986 14.8772H57.1194L56.7329 13.8128C56.0168 11.9501 55.6496 10.9246 55.4944 10.2209H55.4751ZM63.8354 19.6101V7.00882H68.5166C71.1468 7.00882 73.1978 7.55994 74.551 8.89044C75.5765 9.89803 76.177 11.38 76.177 13.3194C76.177 15.2579 75.5765 16.7209 74.551 17.7285C73.1978 19.059 71.1468 19.6101 68.5166 19.6101H63.8354ZM68.4192 16.702C69.9093 16.702 70.9541 16.5495 71.6499 15.9416C72.2494 15.4283 72.5983 14.6111 72.5983 13.3194C72.5983 12.0268 72.2494 11.1907 71.6499 10.6774C70.9541 10.0695 69.9093 9.91697 68.4192 9.91697H67.2781V16.702H68.4192ZM88.0388 7.00882V9.80337H81.5206V11.8743H87.4585V14.6111H81.5206V16.8156H88.2132V19.6101H78.0779V7.00882H88.0388ZM98.4653 19.6101H95.0226V7.00981H98.4653V19.6101ZM104.361 7.00882C104.669 7.00882 104.786 7.04668 104.959 7.25597L108.654 11.7797C109.544 12.8819 110.414 13.9842 110.762 14.4785H110.782V7.00882H113.993V19.6101H111.536C111.227 19.6101 111.111 19.5713 110.937 19.363L107.204 14.8014C106.391 13.8128 105.443 12.6537 105.076 12.1026H105.056V19.6101H101.845V7.00882H104.361ZM33.2466 22.3997H39.2617C41.1383 22.3997 42.2023 22.6847 42.957 23.4073C43.518 23.9395 43.8273 24.7567 43.8273 25.5929C43.8273 26.5995 43.3242 27.5503 42.6476 28.1582C43.8273 28.6525 44.6398 29.6601 44.6398 31.1232C44.6398 32.2822 44.2533 33.1762 43.595 33.8031C42.744 34.6203 41.3706 35 39.4747 35H33.2466V22.3997ZM39.7263 27.4366C39.9586 27.4366 40.1138 27.3978 40.2294 27.2084C40.3653 26.9991 40.4424 26.5427 40.4424 26.2387C40.4424 25.859 40.3654 25.5929 40.1909 25.4215C39.9779 25.2122 39.6492 25.1554 39.1076 25.1554H36.6893V27.4366H39.7263ZM36.6893 32.2444H39.707C40.2872 32.2444 40.6352 32.1687 40.8482 31.9593C41.0226 31.7879 41.1383 31.4461 41.1383 31.0096C41.1383 30.6099 41.0419 30.3627 40.8674 30.1923C40.6554 29.983 40.3258 29.9073 39.707 29.9073H36.6893V32.2444ZM50.8771 35H47.4343V22.3997H53.0437C55.1911 22.3997 56.6031 22.7415 57.4926 23.5966C58.1895 24.2813 58.5952 25.2889 58.5952 26.5427C58.5952 28.3296 57.6478 29.698 56.4681 30.4395L59.3499 35H55.9265C55.6161 35 55.5197 34.9622 55.3453 34.6771L53.3916 31.4082C53.1796 31.0664 53.1411 31.0285 52.7729 31.0285H50.8771L50.8771 35ZM54.127 28.3486C54.4557 28.3486 54.6301 28.2918 54.8239 28.0067C55.0359 27.6828 55.114 27.0938 55.114 26.7141C55.114 26.2576 54.9588 25.8012 54.7458 25.5929C54.4364 25.3079 53.9526 25.2311 53.1015 25.2311H50.8771V28.3486H54.127ZM65.2605 35H61.8178V22.3997H65.2605V35ZM71.7098 25.1932H67.415V22.3997H79.4462V25.1932H75.1525V35.0001H71.7098V25.1932ZM83.9651 22.3997H87.3886C87.6208 22.3997 87.6979 22.4186 87.7953 22.6847L92.9016 35H89.613C89.3807 35 89.2844 34.9622 89.188 34.715L88.4912 32.9101H83.3657L82.7459 34.715C82.6689 34.9621 82.5725 35 82.3402 35H79.1683L83.9651 22.3997ZM85.8021 25.6118C85.6672 26.2955 85.2808 27.4556 84.661 29.2036L84.313 30.268H87.4464L87.0599 29.2036C86.3448 27.341 85.9766 26.3144 85.8214 25.6118H85.8021ZM98.4724 35H95.0297V22.3997H98.4724V35ZM104.368 22.3997C104.677 22.3997 104.794 22.4376 104.967 22.6469L108.663 27.1696C109.552 28.2728 110.422 29.3751 110.77 29.8684H110.79V22.3997H114V35H111.544C111.235 35 111.118 34.9622 110.944 34.7529L107.211 30.1923C106.399 29.2037 105.451 28.0446 105.083 27.4935H105.064V35H101.853V22.3997H104.368Z" fill="#5B7E96"/>
</g>
<path d="M36.675 3.96095H37.5972L36.303 0.0446304H35.2942L34 3.96095H34.912L35.126 3.26918H36.461L36.675 3.96095ZM36.2368 2.53278H35.3553L35.7935 1.09902L36.2368 2.53278Z" fill="black"/>
<path d="M42.3725 0C41.3025 0 40.5535 0.825662 40.5535 1.99721C40.5535 3.16876 41.3076 3.98884 42.3776 3.98884C43.3202 3.98884 43.9163 3.31381 44.0997 2.63877V1.75174H42.2043V2.45467H43.31C43.1775 2.8954 42.8769 3.14644 42.4438 3.14644C41.8171 3.14644 41.4401 2.72245 41.4401 1.99721C41.4401 1.3166 41.812 0.88145 42.3725 0.88145C42.6986 0.88145 42.9431 1.02092 43.0756 1.28312H44.0386C43.8501 0.479777 43.2285 0 42.3725 0Z" fill="black"/>
<path d="M47.5885 0.0446304H45.3976V3.96095H47.5885V3.19665H46.2689V2.33752H47.4356V1.60112H46.2689V0.808926H47.5885V0.0446304Z" fill="black"/>
<path d="M51.2979 0.0446304V2.47141L49.8406 0.0446304H48.9694V3.96095H49.8406V1.54533L51.2979 3.96095H52.1691V0.0446304H51.2979Z" fill="black"/>
<path d="M53.6006 2.38215C53.6006 3.46444 54.2477 4 55.0782 4C55.9037 4 56.5966 3.46444 56.5966 2.38215V0.0446304H55.7253V2.38773C55.7253 2.85077 55.5062 3.11855 55.0935 3.11855C54.6808 3.11855 54.4719 2.85077 54.4719 2.38773V0.0446304H53.6006V2.38215Z" fill="black"/>
<path d="M58.0236 3.96095H58.8949V0.0446304H58.0236V3.96095Z" fill="black"/>
<path d="M62.67 0.0446304V2.47141L61.2128 0.0446304H60.3416V3.96095H61.2128V1.54533L62.67 3.96095H63.5413V0.0446304H62.67Z" fill="black"/>
<path d="M67.179 0.0446304H64.9881V3.96095H67.179V3.19665H65.8594V2.33752H67.0262V1.60112H65.8594V0.808926H67.179V0.0446304Z" fill="black"/>
<path d="M71.1733 3.96095H72.228L72.819 1.38354L73.3897 3.96095H74.4444L75.3768 0.0446304H74.4393L73.9196 2.8954L73.3082 0.0446304H72.3503L71.7134 2.8954L71.1988 0.0446304H70.2663L71.1733 3.96095Z" fill="black"/>
<path d="M79.0696 3.96095H79.9918L78.6976 0.0446304H77.6888L76.3946 3.96095H77.3066L77.5206 3.26918H78.8556L79.0696 3.96095ZM78.6314 2.53278H77.7499L78.1881 1.09902L78.6314 2.53278Z" fill="black"/>
<path d="M81.0073 0.808926H81.955V3.96095H82.8263V0.808926H83.774V0.0446304H81.0073V0.808926Z" fill="black"/>
<path d="M87.2174 0.0446304H85.0265V3.96095H87.2174V3.19665H85.8977V2.33752H87.0645V1.60112H85.8977V0.808926H87.2174V0.0446304Z" fill="black"/>
<path d="M90.4886 1.3166C90.4886 1.62343 90.3357 1.80753 90.0096 1.80753H89.4695V0.83682H90.0096C90.3357 0.83682 90.4886 1.0265 90.4886 1.3166ZM88.5983 0.0446304V3.96095H89.4695V2.48257H89.6784L90.4223 3.96095H91.4057L90.5803 2.41004C91.1306 2.23152 91.3751 1.76848 91.3751 1.27755C91.3751 0.596932 90.9369 0.0446304 90.0606 0.0446304H88.5983Z" fill="black"/>
<path d="M94.6323 3.96095H95.5035V2.37657H96.5939V1.63459H95.5035V0.808926H96.9607V0.0446304H94.6323V3.96095Z" fill="black"/>
<path d="M98.2339 3.96095H99.1052V0.0446304H98.2339V3.96095Z" fill="black"/>
<path d="M100.552 0.0446304V3.96095H102.564V3.22455H101.423V0.0446304H100.552Z" fill="black"/>
<path d="M103.602 0.808926H104.549V3.96095H105.421V0.808926H106.368V0.0446304H103.602V0.808926Z" fill="black"/>
<path d="M109.812 0.0446304H107.621V3.96095H109.812V3.19665H108.492V2.33752H109.659V1.60112H108.492V0.808926H109.812V0.0446304Z" fill="black"/>
<path d="M113.083 1.3166C113.083 1.62343 112.93 1.80753 112.604 1.80753H112.064V0.83682H112.604C112.93 0.83682 113.083 1.0265 113.083 1.3166ZM111.193 0.0446304V3.96095H112.064V2.48257H112.273L113.017 3.96095H114L113.175 2.41004C113.725 2.23152 113.969 1.76848 113.969 1.27755C113.969 0.596932 113.531 0.0446304 112.655 0.0446304H111.193Z" fill="black"/>
<defs>
<clipPath id="clip0">
<rect width="114" height="28" fill="white" transform="translate(0 7)"/>
</clipPath>
</defs>
</svg>
