<?xml version="1.0" encoding="utf-8"?><svg viewBox="0 0 20 24" xmlns="http://www.w3.org/2000/svg" xmlns:xlink="http://www.w3.org/1999/xlink"><style>:root>svg{display:none}:root>svg:target{display:block}</style><svg viewBox="0 0 19 24" id="ic_cart" xmlns="http://www.w3.org/2000/svg"><path d="M19 20.435c0 .484-.396.88-.88.88h-.88v.88c0 .483-.395.88-.879.88a.882.882 0 0 1-.88-.88v-.88h-.88a.882.882 0 0 1-.879-.88c0-.484.396-.88.88-.88h.88v-.88c0-.483.395-.879.88-.879.483 0 .879.396.879.88v.88h.88c.483 0 .879.395.879.88zm0-13.722v8.444c0 .484-.396.88-.88.88a.882.882 0 0 1-.88-.88V7.593h-1.758v2.639c0 .483-.396.88-.88.88a.882.882 0 0 1-.88-.88v-2.64H5.278v2.64c0 .483-.396.88-.88.88a.882.882 0 0 1-.88-.88v-2.64H1.76v13.723h9.324c.484 0 .88.396.88.88 0 .483-.396.88-.88.88H.88a.882.882 0 0 1-.88-.88V6.712c0-.484.396-.88.88-.88h2.678A5.992 5.992 0 0 1 9.5.556a5.992 5.992 0 0 1 5.942 5.277h2.678c.484 0 .88.396.88.88zm-5.335-.88A4.234 4.234 0 0 0 9.5 2.315a4.234 4.234 0 0 0-4.165 3.518h8.33z"/></svg><svg viewBox="0 0 18 19" id="ic_search" xmlns="http://www.w3.org/2000/svg"><path d="M17.726 17.306l-4.437-4.703a7.735 7.735 0 0 0 1.766-4.932C15.055 3.441 11.678 0 7.528 0 3.377 0 0 3.441 0 7.671s3.377 7.671 7.528 7.671a7.351 7.351 0 0 0 4.312-1.388l4.471 4.74a.966.966 0 0 0 1.388.027c.39-.383.403-1.017.027-1.415zM7.528 2.001c3.067 0 5.563 2.544 5.563 5.67 0 3.127-2.495 5.67-5.563 5.67-3.068 0-5.564-2.543-5.564-5.67 0-3.126 2.496-5.67 5.564-5.67z"/></svg><svg viewBox="0 0 9 16" id="ic_soc1" xmlns="http://www.w3.org/2000/svg"><path d="M6.408 3.924c.021-.025.124-.105.52-.105h1.304A.768.768 0 0 0 9 3.05V.77a.768.768 0 0 0-.768-.768L6.296 0C5.101 0 4.085.393 3.357 1.14c-.725.743-1.105 1.78-1.105 2.998v1.23H.768A.768.768 0 0 0 0 6.134v2.453c0 .424.344.768.768.768h1.48v5.727c0 .424.344.768.769.768h2.54a.768.768 0 0 0 .767-.768V9.359h1.812a.768.768 0 0 0 .768-.768V6.138a.77.77 0 0 0-.777-.768H6.32v-.972c.006-.32.05-.434.087-.474z"/></svg><svg viewBox="0 0 15 15" id="ic_soc2" xmlns="http://www.w3.org/2000/svg"><path d="M10.94 0H4.06A4.066 4.066 0 0 0 0 4.06v6.88A4.066 4.066 0 0 0 4.06 15h6.88A4.066 4.066 0 0 0 15 10.94V4.06A4.066 4.066 0 0 0 10.94 0zM7.5 11.602A4.106 4.106 0 0 1 3.398 7.5 4.106 4.106 0 0 1 7.5 3.398 4.106 4.106 0 0 1 11.602 7.5 4.106 4.106 0 0 1 7.5 11.602zm4.198-7.237a1.215 1.215 0 0 1-1.213-1.213c0-.668.545-1.213 1.213-1.213s1.213.545 1.213 1.213-.542 1.213-1.213 1.213z"/><path d="M7.5 4.277A3.226 3.226 0 0 0 4.277 7.5 3.227 3.227 0 0 0 7.5 10.723 3.227 3.227 0 0 0 10.723 7.5 3.228 3.228 0 0 0 7.5 4.277zM11.698 2.821a.334.334 0 1 0 0 .668.334.334 0 0 0 0-.668z"/></svg><svg viewBox="0 0 16 13" id="ic_soc3" xmlns="http://www.w3.org/2000/svg"><path d="M6.903 5.669l2.64 1.422-2.64 1.447v-2.87z" fill="#fff"/><path d="M15.881 10.14v.007c-.012.128-.15 1.275-.706 1.856-.644.688-1.372.769-1.722.81a2.775 2.775 0 0 0-.078.009l-.031.003c-2.116.153-5.31.175-5.34.175h-.007c-.031 0-3.225-.022-5.36-.175l-.028-.003a2.442 2.442 0 0 0-.075-.01c-.346-.04-1.068-.121-1.715-.834-.531-.575-.685-1.697-.7-1.822l-.003-.015C.112 10.088 0 8.809 0 7.528V6.331c0-1.281.113-2.556.119-2.61v-.009c.012-.128.147-1.25.703-1.834.606-.662 1.372-.75 1.781-.797.066-.006.122-.012.16-.022l.037-.006C4.022.938 7.85.878 8.012.878H8.025c.031 0 3.225.022 5.34.175l.029.003.09.01c.344.037 1.063.112 1.7.812.532.575.685 1.697.7 1.825l.003.016c.007.053.12 1.328.12 2.61v1.196a34.135 34.135 0 0 1-.126 2.616zM10.46 6.517l-3.534-1.9a.638.638 0 0 0-.64.015.648.648 0 0 0-.316.556v3.835a.649.649 0 0 0 .963.572l3.53-1.938a.652.652 0 0 0 .338-.572.646.646 0 0 0-.34-.568z"/></svg><svg viewBox="0 0 12.44 12.44" id="ic_user" xmlns="http://www.w3.org/2000/svg"><path d="M3.81 3.11a2.41 2.41 0 1 1 2.41 2.41 2.41 2.41 0 0 1-2.41-2.41zm-3.11 7a1.17 1.17 0 0 1 .45-.89 5.06 5.06 0 0 1 1.44-.83 10.68 10.68 0 0 1 3.63-.69 10.68 10.68 0 0 1 3.63.73 5.06 5.06 0 0 1 1.44.83 1.17 1.17 0 0 1 .45.85v1.63h-11z" fill="none"/></svg><svg viewBox="0 0 20 12" id="ic_view" xmlns="http://www.w3.org/2000/svg"><path d="M19.738 5.058C19.556 4.855 15.371 0 9.988 0 4.627 0 .422 4.855.26 5.058a1.078 1.078 0 0 0 0 1.401c.183.203 4.367 5.058 9.75 5.058 5.362 0 9.567-4.855 9.75-5.058a1.103 1.103 0 0 0-.02-1.401zm-8.104-2.133c.365-.203.873.02 1.117.508.264.467.183 1.015-.183 1.219-.365.203-.873-.02-1.117-.508-.264-.488-.183-1.036.183-1.219zM9.989 9.77c-3.758 0-6.907-2.884-8.003-4.001.73-.772 2.417-2.316 4.59-3.25a4.02 4.02 0 0 0-.67 2.234 4.083 4.083 0 0 0 8.165 0 3.97 3.97 0 0 0-.67-2.234c2.173.934 3.86 2.478 4.59 3.25C16.896 6.906 13.747 9.77 9.99 9.77z"/></svg></svg>